solid OpenSCAD_Model
  facet normal 1 0 0
    outer loop
      vertex 300 834 744
      vertex 300 812 700
      vertex 300 834 700
    endloop
  endfacet
  facet normal 1 0 0
    outer loop
      vertex 300 812 700
      vertex 300 88 700
      vertex 300 812 656
    endloop
  endfacet
  facet normal 1 0 0
    outer loop
      vertex 300 834 744
      vertex 300 88 700
      vertex 300 812 700
    endloop
  endfacet
  facet normal 1 -0 0
    outer loop
      vertex 300 66 744
      vertex 300 88 700
      vertex 300 834 744
    endloop
  endfacet
  facet normal 1 0 0
    outer loop
      vertex 300 88 700
      vertex 300 66 744
      vertex 300 66 700
    endloop
  endfacet
  facet normal 1 0 0
    outer loop
      vertex 300 812 656
      vertex 300 88 700
      vertex 300 88 656
    endloop
  endfacet
  facet normal -1 0 0
    outer loop
      vertex 300 878 44
      vertex 300 834 132
      vertex 300 878 132
    endloop
  endfacet
  facet normal -1 0 0
    outer loop
      vertex 300 812 44
      vertex 300 834 132
      vertex 300 878 44
    endloop
  endfacet
  facet normal -1 0 0
    outer loop
      vertex 300 812 656
      vertex 300 834 132
      vertex 300 812 44
    endloop
  endfacet
  facet normal -1 0 0
    outer loop
      vertex 300 834 132
      vertex 300 812 656
      vertex 300 834 656
    endloop
  endfacet
  facet normal -1 0 0
    outer loop
      vertex 300 878 44
      vertex 300 900 0
      vertex 300 878 0
    endloop
  endfacet
  facet normal -1 0 0
    outer loop
      vertex 300 878 132
      vertex 300 900 0
      vertex 300 878 44
    endloop
  endfacet
  facet normal -1 0 0
    outer loop
      vertex 300 900 0
      vertex 300 878 132
      vertex 300 900 656
    endloop
  endfacet
  facet normal -1 -0 0
    outer loop
      vertex 300 900 656
      vertex 300 878 132
      vertex 300 878 656
    endloop
  endfacet
  facet normal -1 0 0
    outer loop
      vertex 300 0 0
      vertex 300 22 44
      vertex 300 22 0
    endloop
  endfacet
  facet normal -1 -0 0
    outer loop
      vertex 300 22 44
      vertex 300 0 0
      vertex 300 22 132
    endloop
  endfacet
  facet normal -1 0 0
    outer loop
      vertex 300 0 656
      vertex 300 22 132
      vertex 300 0 0
    endloop
  endfacet
  facet normal -1 0 0
    outer loop
      vertex 300 22 132
      vertex 300 0 656
      vertex 300 22 656
    endloop
  endfacet
  facet normal -1 0 0
    outer loop
      vertex 300 88 44
      vertex 300 66 132
      vertex 300 88 656
    endloop
  endfacet
  facet normal -1 0 0
    outer loop
      vertex 300 22 44
      vertex 300 66 132
      vertex 300 88 44
    endloop
  endfacet
  facet normal -1 -0 0
    outer loop
      vertex 300 66 132
      vertex 300 22 44
      vertex 300 22 132
    endloop
  endfacet
  facet normal -1 -0 0
    outer loop
      vertex 300 88 656
      vertex 300 66 132
      vertex 300 66 656
    endloop
  endfacet
  facet normal 1 -0 0
    outer loop
      vertex 300 88 44
      vertex 300 812 0
      vertex 300 812 44
    endloop
  endfacet
  facet normal 1 0 0
    outer loop
      vertex 300 812 0
      vertex 300 88 44
      vertex 300 88 0
    endloop
  endfacet
  facet normal -0 0 1
    outer loop
      vertex 388 834 700
      vertex 432 812 700
      vertex 432 834 700
    endloop
  endfacet
  facet normal 0 0 1
    outer loop
      vertex 432 812 700
      vertex 388 834 700
      vertex 388 812 700
    endloop
  endfacet
  facet normal -0 0 1
    outer loop
      vertex 388 88 700
      vertex 432 66 700
      vertex 432 88 700
    endloop
  endfacet
  facet normal 0 0 1
    outer loop
      vertex 432 66 700
      vertex 388 88 700
      vertex 388 66 700
    endloop
  endfacet
  facet normal 0 0 -1
    outer loop
      vertex 476 22 700
      vertex 800 66 700
      vertex 800 22 700
    endloop
  endfacet
  facet normal -0 0 -1
    outer loop
      vertex 800 66 700
      vertex 476 22 700
      vertex 476 66 700
    endloop
  endfacet
  facet normal 0 0 -1
    outer loop
      vertex 476 834 700
      vertex 800 878 700
      vertex 800 834 700
    endloop
  endfacet
  facet normal -0 0 -1
    outer loop
      vertex 800 878 700
      vertex 476 834 700
      vertex 476 878 700
    endloop
  endfacet
  facet normal 0 0 -1
    outer loop
      vertex 0 834 700
      vertex 256 878 700
      vertex 256 834 700
    endloop
  endfacet
  facet normal -0 0 -1
    outer loop
      vertex 256 878 700
      vertex 0 834 700
      vertex 0 878 700
    endloop
  endfacet
  facet normal 0 0 -1
    outer loop
      vertex 0 22 700
      vertex 256 66 700
      vertex 256 22 700
    endloop
  endfacet
  facet normal -0 0 -1
    outer loop
      vertex 256 66 700
      vertex 0 22 700
      vertex 0 66 700
    endloop
  endfacet
  facet normal -0 0 1
    outer loop
      vertex 300 88 700
      vertex 344 66 700
      vertex 344 88 700
    endloop
  endfacet
  facet normal 0 0 1
    outer loop
      vertex 344 66 700
      vertex 300 88 700
      vertex 300 66 700
    endloop
  endfacet
  facet normal -0 0 1
    outer loop
      vertex 300 834 700
      vertex 344 812 700
      vertex 344 834 700
    endloop
  endfacet
  facet normal 0 0 1
    outer loop
      vertex 344 812 700
      vertex 300 834 700
      vertex 300 812 700
    endloop
  endfacet
  facet normal -0 0 1
    outer loop
      vertex 256 900 700
      vertex 344 878 700
      vertex 344 900 700
    endloop
  endfacet
  facet normal 0 0 1
    outer loop
      vertex 344 878 700
      vertex 256 900 700
      vertex 256 878 700
    endloop
  endfacet
  facet normal -0 0 1
    outer loop
      vertex 388 900 700
      vertex 476 878 700
      vertex 476 900 700
    endloop
  endfacet
  facet normal 0 0 1
    outer loop
      vertex 476 878 700
      vertex 388 900 700
      vertex 388 878 700
    endloop
  endfacet
  facet normal -0 0 1
    outer loop
      vertex 256 22 700
      vertex 344 0 700
      vertex 344 22 700
    endloop
  endfacet
  facet normal 0 0 1
    outer loop
      vertex 344 0 700
      vertex 256 22 700
      vertex 256 0 700
    endloop
  endfacet
  facet normal -0 0 1
    outer loop
      vertex 388 22 700
      vertex 476 0 700
      vertex 476 22 700
    endloop
  endfacet
  facet normal 0 0 1
    outer loop
      vertex 476 0 700
      vertex 388 22 700
      vertex 388 0 700
    endloop
  endfacet
  facet normal -1 0 0
    outer loop
      vertex 344 0 700
      vertex 344 22 744
      vertex 344 22 700
    endloop
  endfacet
  facet normal -1 -0 0
    outer loop
      vertex 344 22 744
      vertex 344 0 700
      vertex 344 0 744
    endloop
  endfacet
  facet normal 0 -1 0
    outer loop
      vertex 0 22 0
      vertex 300 22 44
      vertex 0 22 44
    endloop
  endfacet
  facet normal 0 -1 -0
    outer loop
      vertex 300 22 44
      vertex 0 22 0
      vertex 300 22 0
    endloop
  endfacet
  facet normal 0 -1 0
    outer loop
      vertex 432 22 0
      vertex 800 22 44
      vertex 432 22 44
    endloop
  endfacet
  facet normal 0 -1 -0
    outer loop
      vertex 800 22 44
      vertex 432 22 0
      vertex 800 22 0
    endloop
  endfacet
  facet normal 0 1 -0
    outer loop
      vertex 432 22 132
      vertex 300 22 656
      vertex 432 22 656
    endloop
  endfacet
  facet normal 0 1 0
    outer loop
      vertex 300 22 656
      vertex 432 22 132
      vertex 300 22 132
    endloop
  endfacet
  facet normal 0 0 -1
    outer loop
      vertex 800 22 0
      vertex 476 66 0
      vertex 800 66 0
    endloop
  endfacet
  facet normal 0 0 -1
    outer loop
      vertex 432 88 0
      vertex 476 66 0
      vertex 432 22 0
    endloop
  endfacet
  facet normal 0 0 -1
    outer loop
      vertex 432 22 0
      vertex 476 66 0
      vertex 800 22 0
    endloop
  endfacet
  facet normal 0 0 -1
    outer loop
      vertex 476 834 0
      vertex 800 878 0
      vertex 800 834 0
    endloop
  endfacet
  facet normal 0 0 -1
    outer loop
      vertex 476 66 0
      vertex 432 88 0
      vertex 476 834 0
    endloop
  endfacet
  facet normal 0 0 -1
    outer loop
      vertex 432 812 0
      vertex 476 834 0
      vertex 432 88 0
    endloop
  endfacet
  facet normal 0 0 -1
    outer loop
      vertex 476 834 0
      vertex 432 878 0
      vertex 800 878 0
    endloop
  endfacet
  facet normal 0 0 -1
    outer loop
      vertex 432 812 0
      vertex 432 878 0
      vertex 476 834 0
    endloop
  endfacet
  facet normal 0 0 -1
    outer loop
      vertex 300 878 0
      vertex 432 878 0
      vertex 432 812 0
    endloop
  endfacet
  facet normal 0 0 -1
    outer loop
      vertex 300 878 0
      vertex 432 812 0
      vertex 300 812 0
    endloop
  endfacet
  facet normal 0 0 -1
    outer loop
      vertex 432 878 0
      vertex 300 878 0
      vertex 432 900 0
    endloop
  endfacet
  facet normal -0 0 -1
    outer loop
      vertex 432 900 0
      vertex 300 878 0
      vertex 300 900 0
    endloop
  endfacet
  facet normal 0 0 -1
    outer loop
      vertex 300 812 0
      vertex 256 834 0
      vertex 300 878 0
    endloop
  endfacet
  facet normal 0 0 -1
    outer loop
      vertex 0 878 0
      vertex 256 834 0
      vertex 0 834 0
    endloop
  endfacet
  facet normal 0 0 -1
    outer loop
      vertex 256 834 0
      vertex 0 878 0
      vertex 300 878 0
    endloop
  endfacet
  facet normal 0 0 -1
    outer loop
      vertex 300 22 0
      vertex 432 22 0
      vertex 432 0 0
    endloop
  endfacet
  facet normal 0 0 -1
    outer loop
      vertex 300 22 0
      vertex 432 0 0
      vertex 300 0 0
    endloop
  endfacet
  facet normal 0 0 -1
    outer loop
      vertex 432 22 0
      vertex 300 22 0
      vertex 432 88 0
    endloop
  endfacet
  facet normal 0 0 -1
    outer loop
      vertex 300 22 0
      vertex 300 88 0
      vertex 432 88 0
    endloop
  endfacet
  facet normal 0 0 -1
    outer loop
      vertex 256 66 0
      vertex 300 88 0
      vertex 300 22 0
    endloop
  endfacet
  facet normal -0 0 -1
    outer loop
      vertex 300 88 0
      vertex 256 66 0
      vertex 300 812 0
    endloop
  endfacet
  facet normal 0 0 -1
    outer loop
      vertex 256 834 0
      vertex 300 812 0
      vertex 256 66 0
    endloop
  endfacet
  facet normal 0 0 -1
    outer loop
      vertex 0 22 0
      vertex 256 66 0
      vertex 300 22 0
    endloop
  endfacet
  facet normal -0 0 -1
    outer loop
      vertex 256 66 0
      vertex 0 22 0
      vertex 0 66 0
    endloop
  endfacet
  facet normal 0 -1 0
    outer loop
      vertex 300 0 0
      vertex 432 0 656
      vertex 300 0 656
    endloop
  endfacet
  facet normal 0 -1 -0
    outer loop
      vertex 432 0 656
      vertex 300 0 0
      vertex 432 0 0
    endloop
  endfacet
  facet normal 0 -1 0
    outer loop
      vertex 300 0 656
      vertex 344 0 700
      vertex 256 0 700
    endloop
  endfacet
  facet normal 0 -1 -0
    outer loop
      vertex 344 0 700
      vertex 300 0 656
      vertex 388 0 700
    endloop
  endfacet
  facet normal 0 -1 0
    outer loop
      vertex 300 0 656
      vertex 256 0 700
      vertex 256 0 656
    endloop
  endfacet
  facet normal 0 -1 0
    outer loop
      vertex 432 0 656
      vertex 388 0 700
      vertex 300 0 656
    endloop
  endfacet
  facet normal 0 -1 0
    outer loop
      vertex 388 0 700
      vertex 432 0 656
      vertex 476 0 700
    endloop
  endfacet
  facet normal 0 -1 -0
    outer loop
      vertex 476 0 700
      vertex 432 0 656
      vertex 476 0 656
    endloop
  endfacet
  facet normal 0 -1 0
    outer loop
      vertex 344 0 700
      vertex 388 0 744
      vertex 344 0 744
    endloop
  endfacet
  facet normal 0 -1 -0
    outer loop
      vertex 388 0 744
      vertex 344 0 700
      vertex 388 0 700
    endloop
  endfacet
  facet normal 1 -0 0
    outer loop
      vertex 388 0 744
      vertex 388 22 700
      vertex 388 22 744
    endloop
  endfacet
  facet normal 1 0 0
    outer loop
      vertex 388 22 700
      vertex 388 0 744
      vertex 388 0 700
    endloop
  endfacet
  facet normal -1 0 0
    outer loop
      vertex 432 812 656
      vertex 432 88 656
      vertex 432 812 700
    endloop
  endfacet
  facet normal -1 0 0
    outer loop
      vertex 432 812 700
      vertex 432 834 744
      vertex 432 834 700
    endloop
  endfacet
  facet normal -1 0 0
    outer loop
      vertex 432 88 700
      vertex 432 812 700
      vertex 432 88 656
    endloop
  endfacet
  facet normal -1 0 0
    outer loop
      vertex 432 812 700
      vertex 432 88 700
      vertex 432 834 744
    endloop
  endfacet
  facet normal -1 0 0
    outer loop
      vertex 432 66 744
      vertex 432 88 700
      vertex 432 66 700
    endloop
  endfacet
  facet normal -1 0 0
    outer loop
      vertex 432 88 700
      vertex 432 66 744
      vertex 432 834 744
    endloop
  endfacet
  facet normal 1 0 0
    outer loop
      vertex 432 834 656
      vertex 432 812 656
      vertex 432 834 132
    endloop
  endfacet
  facet normal 1 -0 0
    outer loop
      vertex 432 834 132
      vertex 432 878 44
      vertex 432 878 132
    endloop
  endfacet
  facet normal 1 0 0
    outer loop
      vertex 432 834 132
      vertex 432 812 44
      vertex 432 878 44
    endloop
  endfacet
  facet normal 1 0 0
    outer loop
      vertex 432 812 44
      vertex 432 834 132
      vertex 432 812 656
    endloop
  endfacet
  facet normal 1 0 0
    outer loop
      vertex 432 878 132
      vertex 432 900 656
      vertex 432 878 656
    endloop
  endfacet
  facet normal 1 0 0
    outer loop
      vertex 432 900 656
      vertex 432 878 132
      vertex 432 900 0
    endloop
  endfacet
  facet normal 1 -0 0
    outer loop
      vertex 432 878 44
      vertex 432 900 0
      vertex 432 878 132
    endloop
  endfacet
  facet normal 1 0 0
    outer loop
      vertex 432 900 0
      vertex 432 878 44
      vertex 432 878 0
    endloop
  endfacet
  facet normal 1 -0 0
    outer loop
      vertex 432 0 656
      vertex 432 22 132
      vertex 432 22 656
    endloop
  endfacet
  facet normal 1 0 0
    outer loop
      vertex 432 0 0
      vertex 432 22 132
      vertex 432 0 656
    endloop
  endfacet
  facet normal 1 0 0
    outer loop
      vertex 432 22 132
      vertex 432 0 0
      vertex 432 22 44
    endloop
  endfacet
  facet normal 1 0 0
    outer loop
      vertex 432 22 44
      vertex 432 0 0
      vertex 432 22 0
    endloop
  endfacet
  facet normal 1 0 0
    outer loop
      vertex 432 66 132
      vertex 432 88 656
      vertex 432 66 656
    endloop
  endfacet
  facet normal 1 0 0
    outer loop
      vertex 432 88 656
      vertex 432 66 132
      vertex 432 88 44
    endloop
  endfacet
  facet normal 1 0 0
    outer loop
      vertex 432 22 44
      vertex 432 66 132
      vertex 432 22 132
    endloop
  endfacet
  facet normal 1 0 0
    outer loop
      vertex 432 66 132
      vertex 432 22 44
      vertex 432 88 44
    endloop
  endfacet
  facet normal -1 0 0
    outer loop
      vertex 432 88 0
      vertex 432 812 44
      vertex 432 812 0
    endloop
  endfacet
  facet normal -1 -0 0
    outer loop
      vertex 432 812 44
      vertex 432 88 0
      vertex 432 88 44
    endloop
  endfacet
  facet normal -1 0 0
    outer loop
      vertex 344 66 700
      vertex 344 88 744
      vertex 344 88 700
    endloop
  endfacet
  facet normal -1 -0 0
    outer loop
      vertex 344 88 744
      vertex 344 66 700
      vertex 344 66 744
    endloop
  endfacet
  facet normal 0 1 -0
    outer loop
      vertex 800 66 0
      vertex 476 66 44
      vertex 800 66 44
    endloop
  endfacet
  facet normal 0 1 0
    outer loop
      vertex 476 66 44
      vertex 800 66 0
      vertex 476 66 0
    endloop
  endfacet
  facet normal 0 1 -0
    outer loop
      vertex 256 66 0
      vertex 0 66 44
      vertex 256 66 44
    endloop
  endfacet
  facet normal 0 1 0
    outer loop
      vertex 0 66 44
      vertex 256 66 0
      vertex 0 66 0
    endloop
  endfacet
  facet normal 0 -1 0
    outer loop
      vertex 300 66 132
      vertex 432 66 656
      vertex 300 66 656
    endloop
  endfacet
  facet normal 0 -1 -0
    outer loop
      vertex 432 66 656
      vertex 300 66 132
      vertex 432 66 132
    endloop
  endfacet
  facet normal 0 1 -0
    outer loop
      vertex 432 88 656
      vertex 388 88 700
      vertex 432 88 700
    endloop
  endfacet
  facet normal 0 1 0
    outer loop
      vertex 388 88 700
      vertex 432 88 656
      vertex 344 88 700
    endloop
  endfacet
  facet normal 0 1 0
    outer loop
      vertex 300 88 656
      vertex 344 88 700
      vertex 432 88 656
    endloop
  endfacet
  facet normal 0 1 0
    outer loop
      vertex 344 88 700
      vertex 300 88 656
      vertex 300 88 700
    endloop
  endfacet
  facet normal 0 1 -0
    outer loop
      vertex 432 88 44
      vertex 300 88 656
      vertex 432 88 656
    endloop
  endfacet
  facet normal 0 1 0
    outer loop
      vertex 432 88 44
      vertex 300 88 44
      vertex 300 88 656
    endloop
  endfacet
  facet normal 0 1 -0
    outer loop
      vertex 432 88 0
      vertex 300 88 44
      vertex 432 88 44
    endloop
  endfacet
  facet normal 0 1 0
    outer loop
      vertex 300 88 44
      vertex 432 88 0
      vertex 300 88 0
    endloop
  endfacet
  facet normal 0 1 -0
    outer loop
      vertex 388 88 700
      vertex 344 88 744
      vertex 388 88 744
    endloop
  endfacet
  facet normal 0 1 0
    outer loop
      vertex 344 88 744
      vertex 388 88 700
      vertex 344 88 700
    endloop
  endfacet
  facet normal 1 -0 0
    outer loop
      vertex 388 66 744
      vertex 388 88 700
      vertex 388 88 744
    endloop
  endfacet
  facet normal 1 0 0
    outer loop
      vertex 388 88 700
      vertex 388 66 744
      vertex 388 66 700
    endloop
  endfacet
  facet normal 0 0 -1
    outer loop
      vertex 256 0 656
      vertex 300 22 656
      vertex 300 0 656
    endloop
  endfacet
  facet normal -0 0 -1
    outer loop
      vertex 300 22 656
      vertex 256 0 656
      vertex 300 66 656
    endloop
  endfacet
  facet normal -0 0 -1
    outer loop
      vertex 300 66 656
      vertex 256 0 656
      vertex 300 88 656
    endloop
  endfacet
  facet normal -0 0 -1
    outer loop
      vertex 300 88 656
      vertex 256 0 656
      vertex 300 812 656
    endloop
  endfacet
  facet normal 0 0 -1
    outer loop
      vertex 256 900 656
      vertex 300 812 656
      vertex 256 0 656
    endloop
  endfacet
  facet normal 0 0 -1
    outer loop
      vertex 300 812 656
      vertex 256 900 656
      vertex 300 834 656
    endloop
  endfacet
  facet normal 0 0 -1
    outer loop
      vertex 300 834 656
      vertex 256 900 656
      vertex 300 878 656
    endloop
  endfacet
  facet normal 0 0 -1
    outer loop
      vertex 300 878 656
      vertex 256 900 656
      vertex 300 900 656
    endloop
  endfacet
  facet normal 0 0 -1
    outer loop
      vertex 300 834 656
      vertex 432 878 656
      vertex 432 834 656
    endloop
  endfacet
  facet normal -0 0 -1
    outer loop
      vertex 432 878 656
      vertex 300 834 656
      vertex 300 878 656
    endloop
  endfacet
  facet normal 0 0 -1
    outer loop
      vertex 300 22 656
      vertex 432 66 656
      vertex 432 22 656
    endloop
  endfacet
  facet normal -0 0 -1
    outer loop
      vertex 432 66 656
      vertex 300 22 656
      vertex 300 66 656
    endloop
  endfacet
  facet normal 0 0 -1
    outer loop
      vertex 432 22 656
      vertex 476 0 656
      vertex 432 0 656
    endloop
  endfacet
  facet normal 0 0 -1
    outer loop
      vertex 432 66 656
      vertex 476 0 656
      vertex 432 22 656
    endloop
  endfacet
  facet normal 0 0 -1
    outer loop
      vertex 432 88 656
      vertex 476 0 656
      vertex 432 66 656
    endloop
  endfacet
  facet normal 0 0 -1
    outer loop
      vertex 476 0 656
      vertex 432 88 656
      vertex 476 900 656
    endloop
  endfacet
  facet normal 0 0 -1
    outer loop
      vertex 432 812 656
      vertex 476 900 656
      vertex 432 88 656
    endloop
  endfacet
  facet normal 0 0 -1
    outer loop
      vertex 432 834 656
      vertex 476 900 656
      vertex 432 812 656
    endloop
  endfacet
  facet normal 0 0 -1
    outer loop
      vertex 432 878 656
      vertex 476 900 656
      vertex 432 834 656
    endloop
  endfacet
  facet normal -0 0 -1
    outer loop
      vertex 476 900 656
      vertex 432 878 656
      vertex 432 900 656
    endloop
  endfacet
  facet normal -1 0 0
    outer loop
      vertex 0 22 0
      vertex 0 66 44
      vertex 0 66 0
    endloop
  endfacet
  facet normal -1 -0 0
    outer loop
      vertex 0 66 44
      vertex 0 22 0
      vertex 0 22 44
    endloop
  endfacet
  facet normal -0 0 1
    outer loop
      vertex 256 834 44
      vertex 300 812 44
      vertex 300 878 44
    endloop
  endfacet
  facet normal 0 0 1
    outer loop
      vertex 300 812 44
      vertex 256 834 44
      vertex 300 88 44
    endloop
  endfacet
  facet normal 0 0 1
    outer loop
      vertex 256 66 44
      vertex 300 88 44
      vertex 256 834 44
    endloop
  endfacet
  facet normal -0 0 1
    outer loop
      vertex 0 878 44
      vertex 256 834 44
      vertex 300 878 44
    endloop
  endfacet
  facet normal 0 0 1
    outer loop
      vertex 256 834 44
      vertex 0 878 44
      vertex 0 834 44
    endloop
  endfacet
  facet normal 0 0 1
    outer loop
      vertex 300 88 44
      vertex 256 66 44
      vertex 300 22 44
    endloop
  endfacet
  facet normal 0 0 1
    outer loop
      vertex 0 22 44
      vertex 256 66 44
      vertex 0 66 44
    endloop
  endfacet
  facet normal 0 0 1
    outer loop
      vertex 256 66 44
      vertex 0 22 44
      vertex 300 22 44
    endloop
  endfacet
  facet normal 0 0 1
    outer loop
      vertex 800 878 44
      vertex 476 834 44
      vertex 800 834 44
    endloop
  endfacet
  facet normal 0 0 1
    outer loop
      vertex 432 812 44
      vertex 476 834 44
      vertex 432 878 44
    endloop
  endfacet
  facet normal -0 0 1
    outer loop
      vertex 432 878 44
      vertex 476 834 44
      vertex 800 878 44
    endloop
  endfacet
  facet normal -0 0 1
    outer loop
      vertex 476 66 44
      vertex 800 22 44
      vertex 800 66 44
    endloop
  endfacet
  facet normal 0 0 1
    outer loop
      vertex 476 834 44
      vertex 432 812 44
      vertex 476 66 44
    endloop
  endfacet
  facet normal -0 0 1
    outer loop
      vertex 432 88 44
      vertex 476 66 44
      vertex 432 812 44
    endloop
  endfacet
  facet normal 0 0 1
    outer loop
      vertex 476 66 44
      vertex 432 22 44
      vertex 800 22 44
    endloop
  endfacet
  facet normal 0 0 1
    outer loop
      vertex 432 22 44
      vertex 476 66 44
      vertex 432 88 44
    endloop
  endfacet
  facet normal 1 -0 0
    outer loop
      vertex 800 22 44
      vertex 800 66 0
      vertex 800 66 44
    endloop
  endfacet
  facet normal 1 0 0
    outer loop
      vertex 800 66 0
      vertex 800 22 44
      vertex 800 22 0
    endloop
  endfacet
  facet normal -1 0 0
    outer loop
      vertex 344 812 700
      vertex 344 834 744
      vertex 344 834 700
    endloop
  endfacet
  facet normal -1 -0 0
    outer loop
      vertex 344 834 744
      vertex 344 812 700
      vertex 344 812 744
    endloop
  endfacet
  facet normal 0 -1 0
    outer loop
      vertex 0 834 0
      vertex 256 834 44
      vertex 0 834 44
    endloop
  endfacet
  facet normal 0 -1 -0
    outer loop
      vertex 256 834 44
      vertex 0 834 0
      vertex 256 834 0
    endloop
  endfacet
  facet normal 0 -1 0
    outer loop
      vertex 476 834 0
      vertex 800 834 44
      vertex 476 834 44
    endloop
  endfacet
  facet normal 0 -1 -0
    outer loop
      vertex 800 834 44
      vertex 476 834 0
      vertex 800 834 0
    endloop
  endfacet
  facet normal 0 1 -0
    outer loop
      vertex 432 834 132
      vertex 300 834 656
      vertex 432 834 656
    endloop
  endfacet
  facet normal 0 1 0
    outer loop
      vertex 300 834 656
      vertex 432 834 132
      vertex 300 834 132
    endloop
  endfacet
  facet normal 0 -1 0
    outer loop
      vertex 300 812 656
      vertex 344 812 700
      vertex 300 812 700
    endloop
  endfacet
  facet normal 0 -1 -0
    outer loop
      vertex 344 812 700
      vertex 300 812 656
      vertex 388 812 700
    endloop
  endfacet
  facet normal 0 -1 0
    outer loop
      vertex 432 812 656
      vertex 388 812 700
      vertex 300 812 656
    endloop
  endfacet
  facet normal 0 -1 0
    outer loop
      vertex 388 812 700
      vertex 432 812 656
      vertex 432 812 700
    endloop
  endfacet
  facet normal 0 -1 0
    outer loop
      vertex 300 812 44
      vertex 432 812 656
      vertex 300 812 656
    endloop
  endfacet
  facet normal 0 -1 0
    outer loop
      vertex 300 812 44
      vertex 432 812 44
      vertex 432 812 656
    endloop
  endfacet
  facet normal 0 -1 0
    outer loop
      vertex 300 812 0
      vertex 432 812 44
      vertex 300 812 44
    endloop
  endfacet
  facet normal 0 -1 -0
    outer loop
      vertex 432 812 44
      vertex 300 812 0
      vertex 432 812 0
    endloop
  endfacet
  facet normal 0 -1 0
    outer loop
      vertex 344 812 700
      vertex 388 812 744
      vertex 344 812 744
    endloop
  endfacet
  facet normal 0 -1 -0
    outer loop
      vertex 388 812 744
      vertex 344 812 700
      vertex 388 812 700
    endloop
  endfacet
  facet normal 1 -0 0
    outer loop
      vertex 388 812 744
      vertex 388 834 700
      vertex 388 834 744
    endloop
  endfacet
  facet normal 1 0 0
    outer loop
      vertex 388 834 700
      vertex 388 812 744
      vertex 388 812 700
    endloop
  endfacet
  facet normal -1 0 0
    outer loop
      vertex 344 878 700
      vertex 344 900 744
      vertex 344 900 700
    endloop
  endfacet
  facet normal -1 -0 0
    outer loop
      vertex 344 900 744
      vertex 344 878 700
      vertex 344 878 744
    endloop
  endfacet
  facet normal 0 1 -0
    outer loop
      vertex 800 878 0
      vertex 432 878 44
      vertex 800 878 44
    endloop
  endfacet
  facet normal 0 1 0
    outer loop
      vertex 432 878 44
      vertex 800 878 0
      vertex 432 878 0
    endloop
  endfacet
  facet normal 0 1 -0
    outer loop
      vertex 300 878 0
      vertex 0 878 44
      vertex 300 878 44
    endloop
  endfacet
  facet normal 0 1 0
    outer loop
      vertex 0 878 44
      vertex 300 878 0
      vertex 0 878 0
    endloop
  endfacet
  facet normal 0 -1 0
    outer loop
      vertex 300 878 132
      vertex 432 878 656
      vertex 300 878 656
    endloop
  endfacet
  facet normal 0 -1 -0
    outer loop
      vertex 432 878 656
      vertex 300 878 132
      vertex 432 878 132
    endloop
  endfacet
  facet normal 0 1 -0
    outer loop
      vertex 432 900 0
      vertex 300 900 656
      vertex 432 900 656
    endloop
  endfacet
  facet normal 0 1 0
    outer loop
      vertex 300 900 656
      vertex 432 900 0
      vertex 300 900 0
    endloop
  endfacet
  facet normal 0 1 -0
    outer loop
      vertex 432 900 656
      vertex 388 900 700
      vertex 476 900 700
    endloop
  endfacet
  facet normal 0 1 0
    outer loop
      vertex 388 900 700
      vertex 432 900 656
      vertex 344 900 700
    endloop
  endfacet
  facet normal 0 1 0
    outer loop
      vertex 432 900 656
      vertex 476 900 700
      vertex 476 900 656
    endloop
  endfacet
  facet normal 0 1 0
    outer loop
      vertex 300 900 656
      vertex 344 900 700
      vertex 432 900 656
    endloop
  endfacet
  facet normal 0 1 0
    outer loop
      vertex 344 900 700
      vertex 300 900 656
      vertex 256 900 700
    endloop
  endfacet
  facet normal 0 1 0
    outer loop
      vertex 256 900 700
      vertex 300 900 656
      vertex 256 900 656
    endloop
  endfacet
  facet normal 0 1 -0
    outer loop
      vertex 388 900 700
      vertex 344 900 744
      vertex 388 900 744
    endloop
  endfacet
  facet normal 0 1 0
    outer loop
      vertex 344 900 744
      vertex 388 900 700
      vertex 344 900 700
    endloop
  endfacet
  facet normal 1 -0 0
    outer loop
      vertex 388 878 744
      vertex 388 900 700
      vertex 388 900 744
    endloop
  endfacet
  facet normal 1 0 0
    outer loop
      vertex 388 900 700
      vertex 388 878 744
      vertex 388 878 700
    endloop
  endfacet
  facet normal -1 0 0
    outer loop
      vertex 0 834 0
      vertex 0 878 44
      vertex 0 878 0
    endloop
  endfacet
  facet normal -1 -0 0
    outer loop
      vertex 0 878 44
      vertex 0 834 0
      vertex 0 834 44
    endloop
  endfacet
  facet normal 1 -0 0
    outer loop
      vertex 800 834 44
      vertex 800 878 0
      vertex 800 878 44
    endloop
  endfacet
  facet normal 1 0 0
    outer loop
      vertex 800 878 0
      vertex 800 834 44
      vertex 800 834 0
    endloop
  endfacet
  facet normal -1 0 0
    outer loop
      vertex 256 66 0
      vertex 256 834 44
      vertex 256 834 0
    endloop
  endfacet
  facet normal -1 -0 0
    outer loop
      vertex 256 834 44
      vertex 256 66 0
      vertex 256 66 44
    endloop
  endfacet
  facet normal 1 -0 0
    outer loop
      vertex 476 66 44
      vertex 476 834 0
      vertex 476 834 44
    endloop
  endfacet
  facet normal 1 0 0
    outer loop
      vertex 476 834 0
      vertex 476 66 44
      vertex 476 66 0
    endloop
  endfacet
  facet normal -1 0 0
    outer loop
      vertex 256 900 656
      vertex 256 878 700
      vertex 256 900 700
    endloop
  endfacet
  facet normal -1 0 0
    outer loop
      vertex 256 900 656
      vertex 256 834 700
      vertex 256 878 700
    endloop
  endfacet
  facet normal -1 0 0
    outer loop
      vertex 256 834 700
      vertex 256 66 700
      vertex 256 834 744
    endloop
  endfacet
  facet normal -1 0 0
    outer loop
      vertex 256 900 656
      vertex 256 66 700
      vertex 256 834 700
    endloop
  endfacet
  facet normal -1 0 0
    outer loop
      vertex 256 0 656
      vertex 256 66 700
      vertex 256 900 656
    endloop
  endfacet
  facet normal -1 -0 0
    outer loop
      vertex 256 66 700
      vertex 256 0 656
      vertex 256 22 700
    endloop
  endfacet
  facet normal -1 -0 0
    outer loop
      vertex 256 22 700
      vertex 256 0 656
      vertex 256 0 700
    endloop
  endfacet
  facet normal -1 -0 0
    outer loop
      vertex 256 834 744
      vertex 256 66 700
      vertex 256 66 744
    endloop
  endfacet
  facet normal 1 0 0
    outer loop
      vertex 476 834 744
      vertex 476 66 744
      vertex 476 834 700
    endloop
  endfacet
  facet normal 1 -0 0
    outer loop
      vertex 476 878 700
      vertex 476 900 656
      vertex 476 900 700
    endloop
  endfacet
  facet normal 1 -0 0
    outer loop
      vertex 476 834 700
      vertex 476 900 656
      vertex 476 878 700
    endloop
  endfacet
  facet normal 1 0 0
    outer loop
      vertex 476 66 700
      vertex 476 834 700
      vertex 476 66 744
    endloop
  endfacet
  facet normal 1 0 0
    outer loop
      vertex 476 834 700
      vertex 476 66 700
      vertex 476 900 656
    endloop
  endfacet
  facet normal 1 0 0
    outer loop
      vertex 476 0 656
      vertex 476 66 700
      vertex 476 22 700
    endloop
  endfacet
  facet normal 1 0 0
    outer loop
      vertex 476 0 656
      vertex 476 22 700
      vertex 476 0 700
    endloop
  endfacet
  facet normal 1 0 0
    outer loop
      vertex 476 66 700
      vertex 476 0 656
      vertex 476 900 656
    endloop
  endfacet
  facet normal -0 0 1
    outer loop
      vertex 300 66 744
      vertex 344 22 744
      vertex 344 66 744
    endloop
  endfacet
  facet normal 0 0 1
    outer loop
      vertex 256 66 744
      vertex 300 66 744
      vertex 256 834 744
    endloop
  endfacet
  facet normal -0 0 1
    outer loop
      vertex 256 66 744
      vertex 344 22 744
      vertex 300 66 744
    endloop
  endfacet
  facet normal 0 0 1
    outer loop
      vertex 0 22 744
      vertex 256 66 744
      vertex 0 66 744
    endloop
  endfacet
  facet normal 0 0 1
    outer loop
      vertex 256 66 744
      vertex 0 22 744
      vertex 344 22 744
    endloop
  endfacet
  facet normal 0 0 1
    outer loop
      vertex 344 878 744
      vertex 300 834 744
      vertex 344 834 744
    endloop
  endfacet
  facet normal 0 0 1
    outer loop
      vertex 300 834 744
      vertex 256 834 744
      vertex 300 66 744
    endloop
  endfacet
  facet normal 0 0 1
    outer loop
      vertex 344 878 744
      vertex 256 834 744
      vertex 300 834 744
    endloop
  endfacet
  facet normal -0 0 1
    outer loop
      vertex 0 878 744
      vertex 256 834 744
      vertex 344 878 744
    endloop
  endfacet
  facet normal 0 0 1
    outer loop
      vertex 256 834 744
      vertex 0 878 744
      vertex 0 834 744
    endloop
  endfacet
  facet normal 0 0 1
    outer loop
      vertex 344 66 744
      vertex 388 66 744
      vertex 388 88 744
    endloop
  endfacet
  facet normal 0 0 1
    outer loop
      vertex 388 66 744
      vertex 344 66 744
      vertex 388 22 744
    endloop
  endfacet
  facet normal 0 0 1
    outer loop
      vertex 344 66 744
      vertex 388 88 744
      vertex 344 88 744
    endloop
  endfacet
  facet normal 0 0 1
    outer loop
      vertex 344 22 744
      vertex 388 22 744
      vertex 344 66 744
    endloop
  endfacet
  facet normal 0 0 1
    outer loop
      vertex 388 22 744
      vertex 344 22 744
      vertex 388 0 744
    endloop
  endfacet
  facet normal 0 0 1
    outer loop
      vertex 388 0 744
      vertex 344 22 744
      vertex 344 0 744
    endloop
  endfacet
  facet normal 0 0 1
    outer loop
      vertex 344 878 744
      vertex 388 878 744
      vertex 388 900 744
    endloop
  endfacet
  facet normal 0 0 1
    outer loop
      vertex 388 878 744
      vertex 344 878 744
      vertex 388 834 744
    endloop
  endfacet
  facet normal 0 0 1
    outer loop
      vertex 344 878 744
      vertex 388 900 744
      vertex 344 900 744
    endloop
  endfacet
  facet normal 0 0 1
    outer loop
      vertex 344 834 744
      vertex 388 834 744
      vertex 344 878 744
    endloop
  endfacet
  facet normal 0 0 1
    outer loop
      vertex 388 834 744
      vertex 344 834 744
      vertex 388 812 744
    endloop
  endfacet
  facet normal 0 0 1
    outer loop
      vertex 388 812 744
      vertex 344 834 744
      vertex 344 812 744
    endloop
  endfacet
  facet normal 0 0 1
    outer loop
      vertex 800 878 744
      vertex 476 834 744
      vertex 800 834 744
    endloop
  endfacet
  facet normal 0 0 1
    outer loop
      vertex 476 834 744
      vertex 432 834 744
      vertex 476 66 744
    endloop
  endfacet
  facet normal -0 0 1
    outer loop
      vertex 388 878 744
      vertex 476 834 744
      vertex 800 878 744
    endloop
  endfacet
  facet normal 0 0 1
    outer loop
      vertex 476 834 744
      vertex 388 878 744
      vertex 432 834 744
    endloop
  endfacet
  facet normal 0 0 1
    outer loop
      vertex 432 834 744
      vertex 388 878 744
      vertex 388 834 744
    endloop
  endfacet
  facet normal -0 0 1
    outer loop
      vertex 476 66 744
      vertex 800 22 744
      vertex 800 66 744
    endloop
  endfacet
  facet normal 0 0 1
    outer loop
      vertex 432 66 744
      vertex 476 66 744
      vertex 432 834 744
    endloop
  endfacet
  facet normal 0 0 1
    outer loop
      vertex 388 22 744
      vertex 476 66 744
      vertex 432 66 744
    endloop
  endfacet
  facet normal 0 0 1
    outer loop
      vertex 388 22 744
      vertex 432 66 744
      vertex 388 66 744
    endloop
  endfacet
  facet normal 0 0 1
    outer loop
      vertex 476 66 744
      vertex 388 22 744
      vertex 800 22 744
    endloop
  endfacet
  facet normal 0 -1 0
    outer loop
      vertex 256 22 700
      vertex 0 22 744
      vertex 0 22 700
    endloop
  endfacet
  facet normal 0 -1 0
    outer loop
      vertex 0 22 744
      vertex 256 22 700
      vertex 344 22 744
    endloop
  endfacet
  facet normal 0 -1 -0
    outer loop
      vertex 344 22 744
      vertex 256 22 700
      vertex 344 22 700
    endloop
  endfacet
  facet normal 0 -1 0
    outer loop
      vertex 476 22 700
      vertex 388 22 744
      vertex 388 22 700
    endloop
  endfacet
  facet normal 0 -1 0
    outer loop
      vertex 388 22 744
      vertex 476 22 700
      vertex 800 22 744
    endloop
  endfacet
  facet normal 0 -1 -0
    outer loop
      vertex 800 22 744
      vertex 476 22 700
      vertex 800 22 700
    endloop
  endfacet
  facet normal 0 1 -0
    outer loop
      vertex 432 66 700
      vertex 388 66 744
      vertex 432 66 744
    endloop
  endfacet
  facet normal 0 1 0
    outer loop
      vertex 388 66 744
      vertex 432 66 700
      vertex 388 66 700
    endloop
  endfacet
  facet normal 0 1 -0
    outer loop
      vertex 800 66 700
      vertex 476 66 744
      vertex 800 66 744
    endloop
  endfacet
  facet normal 0 1 0
    outer loop
      vertex 476 66 744
      vertex 800 66 700
      vertex 476 66 700
    endloop
  endfacet
  facet normal 0 1 -0
    outer loop
      vertex 256 66 700
      vertex 0 66 744
      vertex 256 66 744
    endloop
  endfacet
  facet normal 0 1 0
    outer loop
      vertex 0 66 744
      vertex 256 66 700
      vertex 0 66 700
    endloop
  endfacet
  facet normal 0 1 -0
    outer loop
      vertex 344 66 700
      vertex 300 66 744
      vertex 344 66 744
    endloop
  endfacet
  facet normal 0 1 0
    outer loop
      vertex 300 66 744
      vertex 344 66 700
      vertex 300 66 700
    endloop
  endfacet
  facet normal -0 0 1
    outer loop
      vertex 300 66 132
      vertex 432 22 132
      vertex 432 66 132
    endloop
  endfacet
  facet normal 0 0 1
    outer loop
      vertex 432 22 132
      vertex 300 66 132
      vertex 300 22 132
    endloop
  endfacet
  facet normal -1 0 0
    outer loop
      vertex 0 22 700
      vertex 0 66 744
      vertex 0 66 700
    endloop
  endfacet
  facet normal -1 -0 0
    outer loop
      vertex 0 66 744
      vertex 0 22 700
      vertex 0 22 744
    endloop
  endfacet
  facet normal 1 -0 0
    outer loop
      vertex 800 22 744
      vertex 800 66 700
      vertex 800 66 744
    endloop
  endfacet
  facet normal 1 0 0
    outer loop
      vertex 800 66 700
      vertex 800 22 744
      vertex 800 22 700
    endloop
  endfacet
  facet normal 0 -1 0
    outer loop
      vertex 300 834 700
      vertex 344 834 744
      vertex 300 834 744
    endloop
  endfacet
  facet normal 0 -1 -0
    outer loop
      vertex 344 834 744
      vertex 300 834 700
      vertex 344 834 700
    endloop
  endfacet
  facet normal 0 -1 0
    outer loop
      vertex 0 834 700
      vertex 256 834 744
      vertex 0 834 744
    endloop
  endfacet
  facet normal 0 -1 -0
    outer loop
      vertex 256 834 744
      vertex 0 834 700
      vertex 256 834 700
    endloop
  endfacet
  facet normal 0 -1 0
    outer loop
      vertex 476 834 700
      vertex 800 834 744
      vertex 476 834 744
    endloop
  endfacet
  facet normal 0 -1 -0
    outer loop
      vertex 800 834 744
      vertex 476 834 700
      vertex 800 834 700
    endloop
  endfacet
  facet normal 0 -1 0
    outer loop
      vertex 388 834 700
      vertex 432 834 744
      vertex 388 834 744
    endloop
  endfacet
  facet normal 0 -1 -0
    outer loop
      vertex 432 834 744
      vertex 388 834 700
      vertex 432 834 700
    endloop
  endfacet
  facet normal 0 1 0
    outer loop
      vertex 476 878 700
      vertex 800 878 744
      vertex 800 878 700
    endloop
  endfacet
  facet normal 0 1 0
    outer loop
      vertex 800 878 744
      vertex 476 878 700
      vertex 388 878 744
    endloop
  endfacet
  facet normal 0 1 0
    outer loop
      vertex 388 878 744
      vertex 476 878 700
      vertex 388 878 700
    endloop
  endfacet
  facet normal 0 1 0
    outer loop
      vertex 256 878 700
      vertex 344 878 744
      vertex 344 878 700
    endloop
  endfacet
  facet normal 0 1 0
    outer loop
      vertex 344 878 744
      vertex 256 878 700
      vertex 0 878 744
    endloop
  endfacet
  facet normal 0 1 0
    outer loop
      vertex 0 878 744
      vertex 256 878 700
      vertex 0 878 700
    endloop
  endfacet
  facet normal -0 0 1
    outer loop
      vertex 300 878 132
      vertex 432 834 132
      vertex 432 878 132
    endloop
  endfacet
  facet normal 0 0 1
    outer loop
      vertex 432 834 132
      vertex 300 878 132
      vertex 300 834 132
    endloop
  endfacet
  facet normal -1 0 0
    outer loop
      vertex 0 834 700
      vertex 0 878 744
      vertex 0 878 700
    endloop
  endfacet
  facet normal -1 -0 0
    outer loop
      vertex 0 878 744
      vertex 0 834 700
      vertex 0 834 744
    endloop
  endfacet
  facet normal 1 -0 0
    outer loop
      vertex 800 834 744
      vertex 800 878 700
      vertex 800 878 744
    endloop
  endfacet
  facet normal 1 0 0
    outer loop
      vertex 800 878 700
      vertex 800 834 744
      vertex 800 834 700
    endloop
  endfacet
endsolid OpenSCAD_Model
