solid OpenSCAD_Model
  facet normal -1 0 0
    outer loop
      vertex 100 22 864
      vertex 100 0 864
      vertex 100 22 1800
    endloop
  endfacet
  facet normal -1 0 0
    outer loop
      vertex 100 88 864
      vertex 100 66 864
      vertex 100 88 1800
    endloop
  endfacet
  facet normal -1 0 0
    outer loop
      vertex 100 834 864
      vertex 100 812 864
      vertex 100 834 1800
    endloop
  endfacet
  facet normal -1 0 0
    outer loop
      vertex 100 878 1800
      vertex 100 900 864
      vertex 100 878 864
    endloop
  endfacet
  facet normal -1 0 0
    outer loop
      vertex 100 900 864
      vertex 100 878 1800
      vertex 100 900 1844
    endloop
  endfacet
  facet normal -1 0 0
    outer loop
      vertex 100 834 1800
      vertex 100 900 1844
      vertex 100 878 1800
    endloop
  endfacet
  facet normal -1 0 0
    outer loop
      vertex 100 812 1800
      vertex 100 834 1800
      vertex 100 812 864
    endloop
  endfacet
  facet normal -1 0 0
    outer loop
      vertex 100 812 1800
      vertex 100 900 1844
      vertex 100 834 1800
    endloop
  endfacet
  facet normal -1 0 0
    outer loop
      vertex 100 88 1800
      vertex 100 900 1844
      vertex 100 812 1800
    endloop
  endfacet
  facet normal -1 0 0
    outer loop
      vertex 100 66 1800
      vertex 100 88 1800
      vertex 100 66 864
    endloop
  endfacet
  facet normal -1 0 0
    outer loop
      vertex 100 0 1844
      vertex 100 88 1800
      vertex 100 66 1800
    endloop
  endfacet
  facet normal -1 0 0
    outer loop
      vertex 100 0 1844
      vertex 100 66 1800
      vertex 100 22 1800
    endloop
  endfacet
  facet normal -1 0 0
    outer loop
      vertex 100 88 1800
      vertex 100 0 1844
      vertex 100 900 1844
    endloop
  endfacet
  facet normal -1 0 0
    outer loop
      vertex 100 0 1844
      vertex 100 22 1800
      vertex 100 0 864
    endloop
  endfacet
  facet normal -1 0 0
    outer loop
      vertex 100 878 0
      vertex 100 900 44
      vertex 100 900 0
    endloop
  endfacet
  facet normal -1 -0 0
    outer loop
      vertex 100 900 44
      vertex 100 878 0
      vertex 100 878 44
    endloop
  endfacet
  facet normal 1 -0 0
    outer loop
      vertex 100 88 44
      vertex 100 812 0
      vertex 100 812 44
    endloop
  endfacet
  facet normal 1 0 0
    outer loop
      vertex 100 812 0
      vertex 100 88 44
      vertex 100 88 0
    endloop
  endfacet
  facet normal -1 0 0
    outer loop
      vertex 100 0 0
      vertex 100 22 44
      vertex 100 22 0
    endloop
  endfacet
  facet normal -1 -0 0
    outer loop
      vertex 100 22 44
      vertex 100 0 0
      vertex 100 0 44
    endloop
  endfacet
  facet normal 0 0 -1
    outer loop
      vertex 100 834 1800
      vertex 144 878 1800
      vertex 144 834 1800
    endloop
  endfacet
  facet normal -0 0 -1
    outer loop
      vertex 144 878 1800
      vertex 100 834 1800
      vertex 100 878 1800
    endloop
  endfacet
  facet normal 0 0 -1
    outer loop
      vertex 100 88 1800
      vertex 144 812 1800
      vertex 144 88 1800
    endloop
  endfacet
  facet normal -0 0 -1
    outer loop
      vertex 144 812 1800
      vertex 100 88 1800
      vertex 100 812 1800
    endloop
  endfacet
  facet normal 0 0 -1
    outer loop
      vertex 100 22 1800
      vertex 144 66 1800
      vertex 144 22 1800
    endloop
  endfacet
  facet normal -0 0 -1
    outer loop
      vertex 144 66 1800
      vertex 100 22 1800
      vertex 100 66 1800
    endloop
  endfacet
  facet normal 1 0 0
    outer loop
      vertex 144 900 1844
      vertex 144 878 1800
      vertex 144 900 864
    endloop
  endfacet
  facet normal 1 0 0
    outer loop
      vertex 144 900 1844
      vertex 144 834 1800
      vertex 144 878 1800
    endloop
  endfacet
  facet normal 1 0 0
    outer loop
      vertex 144 834 1800
      vertex 144 812 1800
      vertex 144 834 864
    endloop
  endfacet
  facet normal 1 0 0
    outer loop
      vertex 144 900 1844
      vertex 144 812 1800
      vertex 144 834 1800
    endloop
  endfacet
  facet normal 1 0 0
    outer loop
      vertex 144 900 1844
      vertex 144 88 1800
      vertex 144 812 1800
    endloop
  endfacet
  facet normal 1 0 0
    outer loop
      vertex 144 88 1800
      vertex 144 66 1800
      vertex 144 88 864
    endloop
  endfacet
  facet normal 1 -0 0
    outer loop
      vertex 144 0 1844
      vertex 144 88 1800
      vertex 144 900 1844
    endloop
  endfacet
  facet normal 1 0 0
    outer loop
      vertex 144 88 1800
      vertex 144 0 1844
      vertex 144 66 1800
    endloop
  endfacet
  facet normal 1 0 0
    outer loop
      vertex 144 66 1800
      vertex 144 0 1844
      vertex 144 22 1800
    endloop
  endfacet
  facet normal 1 0 0
    outer loop
      vertex 144 0 864
      vertex 144 22 1800
      vertex 144 0 1844
    endloop
  endfacet
  facet normal 1 0 0
    outer loop
      vertex 144 22 1800
      vertex 144 0 864
      vertex 144 22 864
    endloop
  endfacet
  facet normal 1 0 0
    outer loop
      vertex 144 900 864
      vertex 144 878 1800
      vertex 144 878 864
    endloop
  endfacet
  facet normal 1 0 0
    outer loop
      vertex 144 834 864
      vertex 144 812 1800
      vertex 144 812 864
    endloop
  endfacet
  facet normal 1 0 0
    outer loop
      vertex 144 88 864
      vertex 144 66 1800
      vertex 144 66 864
    endloop
  endfacet
  facet normal 1 -0 0
    outer loop
      vertex 144 878 44
      vertex 144 900 0
      vertex 144 900 44
    endloop
  endfacet
  facet normal 1 0 0
    outer loop
      vertex 144 900 0
      vertex 144 878 44
      vertex 144 878 0
    endloop
  endfacet
  facet normal 1 -0 0
    outer loop
      vertex 144 812 44
      vertex 144 834 0
      vertex 144 834 44
    endloop
  endfacet
  facet normal 1 0 0
    outer loop
      vertex 144 834 0
      vertex 144 812 44
      vertex 144 812 0
    endloop
  endfacet
  facet normal 1 -0 0
    outer loop
      vertex 144 66 44
      vertex 144 88 0
      vertex 144 88 44
    endloop
  endfacet
  facet normal 1 0 0
    outer loop
      vertex 144 88 0
      vertex 144 66 44
      vertex 144 66 0
    endloop
  endfacet
  facet normal 1 -0 0
    outer loop
      vertex 144 0 44
      vertex 144 22 0
      vertex 144 22 44
    endloop
  endfacet
  facet normal 1 0 0
    outer loop
      vertex 144 22 0
      vertex 144 0 44
      vertex 144 0 0
    endloop
  endfacet
  facet normal 0 0 -1
    outer loop
      vertex 100 812 0
      vertex 144 834 0
      vertex 144 812 0
    endloop
  endfacet
  facet normal 0 0 -1
    outer loop
      vertex 144 834 0
      vertex 100 878 0
      vertex 144 878 0
    endloop
  endfacet
  facet normal -0 0 -1
    outer loop
      vertex 144 834 0
      vertex 100 812 0
      vertex 100 878 0
    endloop
  endfacet
  facet normal 0 0 -1
    outer loop
      vertex 144 878 0
      vertex 100 878 0
      vertex 144 900 0
    endloop
  endfacet
  facet normal -0 0 -1
    outer loop
      vertex 144 900 0
      vertex 100 878 0
      vertex 100 900 0
    endloop
  endfacet
  facet normal 0 0 -1
    outer loop
      vertex 144 834 0
      vertex 600 878 0
      vertex 600 834 0
    endloop
  endfacet
  facet normal -0 0 -1
    outer loop
      vertex 600 878 0
      vertex 144 834 0
      vertex 144 878 0
    endloop
  endfacet
  facet normal 0 0 -1
    outer loop
      vertex 100 22 0
      vertex 144 22 0
      vertex 144 0 0
    endloop
  endfacet
  facet normal 0 0 -1
    outer loop
      vertex 144 22 0
      vertex 100 22 0
      vertex 144 66 0
    endloop
  endfacet
  facet normal 0 0 -1
    outer loop
      vertex 100 22 0
      vertex 144 0 0
      vertex 100 0 0
    endloop
  endfacet
  facet normal 0 0 -1
    outer loop
      vertex 100 88 0
      vertex 144 66 0
      vertex 100 22 0
    endloop
  endfacet
  facet normal 0 0 -1
    outer loop
      vertex 144 66 0
      vertex 100 88 0
      vertex 144 88 0
    endloop
  endfacet
  facet normal 0 0 -1
    outer loop
      vertex 56 66 0
      vertex 100 88 0
      vertex 100 22 0
    endloop
  endfacet
  facet normal -0 0 -1
    outer loop
      vertex 100 88 0
      vertex 56 66 0
      vertex 100 812 0
    endloop
  endfacet
  facet normal 0 0 -1
    outer loop
      vertex 56 834 0
      vertex 100 812 0
      vertex 56 66 0
    endloop
  endfacet
  facet normal 0 0 -1
    outer loop
      vertex 0 22 0
      vertex 56 66 0
      vertex 100 22 0
    endloop
  endfacet
  facet normal -0 0 -1
    outer loop
      vertex 56 66 0
      vertex 0 22 0
      vertex 0 66 0
    endloop
  endfacet
  facet normal 0 0 -1
    outer loop
      vertex 144 22 0
      vertex 600 66 0
      vertex 600 22 0
    endloop
  endfacet
  facet normal -0 0 -1
    outer loop
      vertex 600 66 0
      vertex 144 22 0
      vertex 144 66 0
    endloop
  endfacet
  facet normal 0 0 -1
    outer loop
      vertex 100 812 0
      vertex 56 834 0
      vertex 100 878 0
    endloop
  endfacet
  facet normal 0 0 -1
    outer loop
      vertex 0 878 0
      vertex 56 834 0
      vertex 0 834 0
    endloop
  endfacet
  facet normal 0 0 -1
    outer loop
      vertex 56 834 0
      vertex 0 878 0
      vertex 100 878 0
    endloop
  endfacet
  facet normal 0 -1 0
    outer loop
      vertex 100 0 0
      vertex 144 0 44
      vertex 100 0 44
    endloop
  endfacet
  facet normal 0 -1 -0
    outer loop
      vertex 144 0 44
      vertex 100 0 0
      vertex 144 0 0
    endloop
  endfacet
  facet normal 0 -1 0
    outer loop
      vertex 100 0 44
      vertex 78 0 644
      vertex 78 0 44
    endloop
  endfacet
  facet normal 0 -1 0
    outer loop
      vertex 78 0 644
      vertex 100 0 44
      vertex 166 0 644
    endloop
  endfacet
  facet normal 0 -1 0
    outer loop
      vertex 144 0 44
      vertex 166 0 644
      vertex 100 0 44
    endloop
  endfacet
  facet normal 0 -1 -0
    outer loop
      vertex 166 0 644
      vertex 144 0 44
      vertex 166 0 44
    endloop
  endfacet
  facet normal 0 -1 0
    outer loop
      vertex 78 0 644
      vertex 78 0 664
      vertex 0 0 664
    endloop
  endfacet
  facet normal 0 -1 0
    outer loop
      vertex 78 0 664
      vertex 78 0 644
      vertex 166 0 664
    endloop
  endfacet
  facet normal 0 -1 0
    outer loop
      vertex 78 0 644
      vertex 0 0 664
      vertex 0 0 644
    endloop
  endfacet
  facet normal 0 -1 -0
    outer loop
      vertex 166 0 664
      vertex 78 0 644
      vertex 166 0 644
    endloop
  endfacet
  facet normal 0 -1 0
    outer loop
      vertex 166 0 664
      vertex 166 0 644
      vertex 600 0 664
    endloop
  endfacet
  facet normal 0 -1 -0
    outer loop
      vertex 600 0 664
      vertex 166 0 644
      vertex 600 0 644
    endloop
  endfacet
  facet normal 0 -1 0
    outer loop
      vertex 78 0 664
      vertex 100 0 864
      vertex 78 0 864
    endloop
  endfacet
  facet normal 0 -1 -0
    outer loop
      vertex 100 0 864
      vertex 78 0 664
      vertex 144 0 864
    endloop
  endfacet
  facet normal 0 -1 0
    outer loop
      vertex 166 0 664
      vertex 144 0 864
      vertex 78 0 664
    endloop
  endfacet
  facet normal 0 -1 0
    outer loop
      vertex 144 0 864
      vertex 166 0 664
      vertex 166 0 864
    endloop
  endfacet
  facet normal 0 -1 0
    outer loop
      vertex 100 0 864
      vertex 144 0 1844
      vertex 100 0 1844
    endloop
  endfacet
  facet normal 0 -1 -0
    outer loop
      vertex 144 0 1844
      vertex 100 0 864
      vertex 144 0 864
    endloop
  endfacet
  facet normal 0 1 -0
    outer loop
      vertex 166 22 664
      vertex 78 22 820
      vertex 166 22 820
    endloop
  endfacet
  facet normal 0 1 0
    outer loop
      vertex 78 22 820
      vertex 166 22 664
      vertex 78 22 664
    endloop
  endfacet
  facet normal 0 1 -0
    outer loop
      vertex 166 22 88
      vertex 78 22 600
      vertex 166 22 600
    endloop
  endfacet
  facet normal 0 1 0
    outer loop
      vertex 78 22 600
      vertex 166 22 88
      vertex 78 22 88
    endloop
  endfacet
  facet normal 0 1 -0
    outer loop
      vertex 144 22 864
      vertex 100 22 1800
      vertex 144 22 1800
    endloop
  endfacet
  facet normal 0 1 0
    outer loop
      vertex 100 22 1800
      vertex 144 22 864
      vertex 100 22 864
    endloop
  endfacet
  facet normal 0 -1 0
    outer loop
      vertex 0 22 0
      vertex 78 22 44
      vertex 0 22 44
    endloop
  endfacet
  facet normal 0 -1 0
    outer loop
      vertex 100 22 0
      vertex 78 22 44
      vertex 0 22 0
    endloop
  endfacet
  facet normal 0 -1 0
    outer loop
      vertex 78 22 44
      vertex 100 22 0
      vertex 100 22 44
    endloop
  endfacet
  facet normal 0 -1 0
    outer loop
      vertex 144 22 0
      vertex 166 22 44
      vertex 144 22 44
    endloop
  endfacet
  facet normal 0 -1 0
    outer loop
      vertex 600 22 0
      vertex 166 22 44
      vertex 144 22 0
    endloop
  endfacet
  facet normal 0 -1 0
    outer loop
      vertex 166 22 44
      vertex 600 22 0
      vertex 600 22 44
    endloop
  endfacet
  facet normal 0 1 -0
    outer loop
      vertex 166 88 664
      vertex 144 88 864
      vertex 166 88 864
    endloop
  endfacet
  facet normal 0 1 0
    outer loop
      vertex 144 88 864
      vertex 166 88 664
      vertex 100 88 864
    endloop
  endfacet
  facet normal 0 1 0
    outer loop
      vertex 78 88 664
      vertex 100 88 864
      vertex 166 88 664
    endloop
  endfacet
  facet normal 0 1 0
    outer loop
      vertex 100 88 864
      vertex 78 88 664
      vertex 78 88 864
    endloop
  endfacet
  facet normal 0 1 -0
    outer loop
      vertex 144 88 864
      vertex 100 88 1800
      vertex 144 88 1800
    endloop
  endfacet
  facet normal 0 1 0
    outer loop
      vertex 100 88 1800
      vertex 144 88 864
      vertex 100 88 864
    endloop
  endfacet
  facet normal 0 1 -0
    outer loop
      vertex 144 88 0
      vertex 100 88 44
      vertex 144 88 44
    endloop
  endfacet
  facet normal 0 1 0
    outer loop
      vertex 100 88 44
      vertex 144 88 0
      vertex 100 88 0
    endloop
  endfacet
  facet normal 0 1 0
    outer loop
      vertex 144 88 44
      vertex 166 88 644
      vertex 166 88 44
    endloop
  endfacet
  facet normal 0 1 0
    outer loop
      vertex 166 88 644
      vertex 144 88 44
      vertex 78 88 644
    endloop
  endfacet
  facet normal 0 1 -0
    outer loop
      vertex 100 88 44
      vertex 78 88 644
      vertex 144 88 44
    endloop
  endfacet
  facet normal 0 1 0
    outer loop
      vertex 78 88 644
      vertex 100 88 44
      vertex 78 88 44
    endloop
  endfacet
  facet normal 0 -1 0
    outer loop
      vertex 100 66 864
      vertex 144 66 1800
      vertex 100 66 1800
    endloop
  endfacet
  facet normal 0 -1 -0
    outer loop
      vertex 144 66 1800
      vertex 100 66 864
      vertex 144 66 864
    endloop
  endfacet
  facet normal 0 -1 0
    outer loop
      vertex 78 66 664
      vertex 166 66 820
      vertex 78 66 820
    endloop
  endfacet
  facet normal 0 -1 -0
    outer loop
      vertex 166 66 820
      vertex 78 66 664
      vertex 166 66 664
    endloop
  endfacet
  facet normal 0 -1 0
    outer loop
      vertex 78 66 88
      vertex 166 66 600
      vertex 78 66 600
    endloop
  endfacet
  facet normal 0 -1 -0
    outer loop
      vertex 166 66 600
      vertex 78 66 88
      vertex 166 66 88
    endloop
  endfacet
  facet normal 0 1 -0
    outer loop
      vertex 56 66 0
      vertex 0 66 44
      vertex 56 66 44
    endloop
  endfacet
  facet normal 0 1 0
    outer loop
      vertex 0 66 44
      vertex 56 66 0
      vertex 0 66 0
    endloop
  endfacet
  facet normal 0 1 -0
    outer loop
      vertex 600 66 0
      vertex 166 66 44
      vertex 600 66 44
    endloop
  endfacet
  facet normal 0 1 0
    outer loop
      vertex 144 66 0
      vertex 166 66 44
      vertex 600 66 0
    endloop
  endfacet
  facet normal 0 1 0
    outer loop
      vertex 166 66 44
      vertex 144 66 0
      vertex 144 66 44
    endloop
  endfacet
  facet normal -1 0 0
    outer loop
      vertex 0 22 0
      vertex 0 66 44
      vertex 0 66 0
    endloop
  endfacet
  facet normal -1 -0 0
    outer loop
      vertex 0 66 44
      vertex 0 22 0
      vertex 0 22 44
    endloop
  endfacet
  facet normal 0 0 -1
    outer loop
      vertex 144 878 44
      vertex 166 900 44
      vertex 166 878 44
    endloop
  endfacet
  facet normal -0 0 -1
    outer loop
      vertex 166 900 44
      vertex 144 878 44
      vertex 144 900 44
    endloop
  endfacet
  facet normal 0 0 -1
    outer loop
      vertex 78 878 44
      vertex 100 900 44
      vertex 100 878 44
    endloop
  endfacet
  facet normal -0 0 -1
    outer loop
      vertex 100 900 44
      vertex 78 878 44
      vertex 78 900 44
    endloop
  endfacet
  facet normal 0 0 -1
    outer loop
      vertex 144 812 44
      vertex 166 834 44
      vertex 166 812 44
    endloop
  endfacet
  facet normal -0 0 -1
    outer loop
      vertex 166 834 44
      vertex 144 812 44
      vertex 144 834 44
    endloop
  endfacet
  facet normal -0 0 1
    outer loop
      vertex 56 834 44
      vertex 78 812 44
      vertex 78 878 44
    endloop
  endfacet
  facet normal 0 0 1
    outer loop
      vertex 78 812 44
      vertex 56 834 44
      vertex 78 88 44
    endloop
  endfacet
  facet normal 0 0 1
    outer loop
      vertex 56 66 44
      vertex 78 88 44
      vertex 56 834 44
    endloop
  endfacet
  facet normal -0 0 1
    outer loop
      vertex 0 878 44
      vertex 56 834 44
      vertex 78 878 44
    endloop
  endfacet
  facet normal 0 0 1
    outer loop
      vertex 56 834 44
      vertex 0 878 44
      vertex 0 834 44
    endloop
  endfacet
  facet normal -0 0 1
    outer loop
      vertex 78 812 44
      vertex 100 88 44
      vertex 100 812 44
    endloop
  endfacet
  facet normal 0 0 1
    outer loop
      vertex 100 88 44
      vertex 78 812 44
      vertex 78 88 44
    endloop
  endfacet
  facet normal 0 0 1
    outer loop
      vertex 78 88 44
      vertex 56 66 44
      vertex 78 22 44
    endloop
  endfacet
  facet normal 0 0 1
    outer loop
      vertex 0 22 44
      vertex 56 66 44
      vertex 0 66 44
    endloop
  endfacet
  facet normal 0 0 1
    outer loop
      vertex 56 66 44
      vertex 0 22 44
      vertex 78 22 44
    endloop
  endfacet
  facet normal 0 0 -1
    outer loop
      vertex 144 66 44
      vertex 166 88 44
      vertex 166 66 44
    endloop
  endfacet
  facet normal -0 0 -1
    outer loop
      vertex 166 88 44
      vertex 144 66 44
      vertex 144 88 44
    endloop
  endfacet
  facet normal 0 0 -1
    outer loop
      vertex 144 0 44
      vertex 166 22 44
      vertex 166 0 44
    endloop
  endfacet
  facet normal -0 0 -1
    outer loop
      vertex 166 22 44
      vertex 144 0 44
      vertex 144 22 44
    endloop
  endfacet
  facet normal 0 0 -1
    outer loop
      vertex 78 0 44
      vertex 100 22 44
      vertex 100 0 44
    endloop
  endfacet
  facet normal -0 0 -1
    outer loop
      vertex 100 22 44
      vertex 78 0 44
      vertex 78 22 44
    endloop
  endfacet
  facet normal -0 0 1
    outer loop
      vertex 166 878 44
      vertex 600 834 44
      vertex 600 878 44
    endloop
  endfacet
  facet normal 0 0 1
    outer loop
      vertex 600 834 44
      vertex 166 878 44
      vertex 166 834 44
    endloop
  endfacet
  facet normal -0 0 1
    outer loop
      vertex 166 66 44
      vertex 600 22 44
      vertex 600 66 44
    endloop
  endfacet
  facet normal 0 0 1
    outer loop
      vertex 600 22 44
      vertex 166 66 44
      vertex 166 22 44
    endloop
  endfacet
  facet normal 1 -0 0
    outer loop
      vertex 600 22 44
      vertex 600 66 0
      vertex 600 66 44
    endloop
  endfacet
  facet normal 1 0 0
    outer loop
      vertex 600 66 0
      vertex 600 22 44
      vertex 600 22 0
    endloop
  endfacet
  facet normal 0 -1 0
    outer loop
      vertex 78 812 664
      vertex 100 812 864
      vertex 78 812 864
    endloop
  endfacet
  facet normal 0 -1 -0
    outer loop
      vertex 100 812 864
      vertex 78 812 664
      vertex 144 812 864
    endloop
  endfacet
  facet normal 0 -1 0
    outer loop
      vertex 166 812 664
      vertex 144 812 864
      vertex 78 812 664
    endloop
  endfacet
  facet normal 0 -1 0
    outer loop
      vertex 144 812 864
      vertex 166 812 664
      vertex 166 812 864
    endloop
  endfacet
  facet normal 0 -1 0
    outer loop
      vertex 100 812 864
      vertex 144 812 1800
      vertex 100 812 1800
    endloop
  endfacet
  facet normal 0 -1 -0
    outer loop
      vertex 144 812 1800
      vertex 100 812 864
      vertex 144 812 864
    endloop
  endfacet
  facet normal 0 -1 0
    outer loop
      vertex 100 812 0
      vertex 144 812 44
      vertex 100 812 44
    endloop
  endfacet
  facet normal 0 -1 -0
    outer loop
      vertex 144 812 44
      vertex 100 812 0
      vertex 144 812 0
    endloop
  endfacet
  facet normal 0 -1 0
    outer loop
      vertex 100 812 44
      vertex 78 812 644
      vertex 78 812 44
    endloop
  endfacet
  facet normal 0 -1 0
    outer loop
      vertex 78 812 644
      vertex 100 812 44
      vertex 166 812 644
    endloop
  endfacet
  facet normal 0 -1 0
    outer loop
      vertex 144 812 44
      vertex 166 812 644
      vertex 100 812 44
    endloop
  endfacet
  facet normal 0 -1 -0
    outer loop
      vertex 166 812 644
      vertex 144 812 44
      vertex 166 812 44
    endloop
  endfacet
  facet normal 0 1 -0
    outer loop
      vertex 166 834 664
      vertex 78 834 820
      vertex 166 834 820
    endloop
  endfacet
  facet normal 0 1 0
    outer loop
      vertex 78 834 820
      vertex 166 834 664
      vertex 78 834 664
    endloop
  endfacet
  facet normal 0 1 -0
    outer loop
      vertex 166 834 88
      vertex 78 834 600
      vertex 166 834 600
    endloop
  endfacet
  facet normal 0 1 0
    outer loop
      vertex 78 834 600
      vertex 166 834 88
      vertex 78 834 88
    endloop
  endfacet
  facet normal 0 1 -0
    outer loop
      vertex 144 834 864
      vertex 100 834 1800
      vertex 144 834 1800
    endloop
  endfacet
  facet normal 0 1 0
    outer loop
      vertex 100 834 1800
      vertex 144 834 864
      vertex 100 834 864
    endloop
  endfacet
  facet normal 0 -1 0
    outer loop
      vertex 0 834 0
      vertex 56 834 44
      vertex 0 834 44
    endloop
  endfacet
  facet normal 0 -1 -0
    outer loop
      vertex 56 834 44
      vertex 0 834 0
      vertex 56 834 0
    endloop
  endfacet
  facet normal 0 -1 0
    outer loop
      vertex 144 834 0
      vertex 166 834 44
      vertex 144 834 44
    endloop
  endfacet
  facet normal 0 -1 0
    outer loop
      vertex 600 834 0
      vertex 166 834 44
      vertex 144 834 0
    endloop
  endfacet
  facet normal 0 -1 0
    outer loop
      vertex 166 834 44
      vertex 600 834 0
      vertex 600 834 44
    endloop
  endfacet
  facet normal 0 1 -0
    outer loop
      vertex 144 900 0
      vertex 100 900 44
      vertex 144 900 44
    endloop
  endfacet
  facet normal 0 1 0
    outer loop
      vertex 100 900 44
      vertex 144 900 0
      vertex 100 900 0
    endloop
  endfacet
  facet normal 0 1 0
    outer loop
      vertex 144 900 44
      vertex 166 900 644
      vertex 166 900 44
    endloop
  endfacet
  facet normal 0 1 0
    outer loop
      vertex 166 900 644
      vertex 144 900 44
      vertex 78 900 644
    endloop
  endfacet
  facet normal 0 1 -0
    outer loop
      vertex 100 900 44
      vertex 78 900 644
      vertex 144 900 44
    endloop
  endfacet
  facet normal 0 1 0
    outer loop
      vertex 78 900 644
      vertex 100 900 44
      vertex 78 900 44
    endloop
  endfacet
  facet normal 0 1 0
    outer loop
      vertex 166 900 644
      vertex 166 900 664
      vertex 600 900 664
    endloop
  endfacet
  facet normal 0 1 0
    outer loop
      vertex 166 900 664
      vertex 166 900 644
      vertex 78 900 664
    endloop
  endfacet
  facet normal 0 1 0
    outer loop
      vertex 166 900 644
      vertex 600 900 664
      vertex 600 900 644
    endloop
  endfacet
  facet normal 0 1 0
    outer loop
      vertex 78 900 644
      vertex 78 900 664
      vertex 166 900 644
    endloop
  endfacet
  facet normal 0 1 0
    outer loop
      vertex 78 900 664
      vertex 78 900 644
      vertex 0 900 664
    endloop
  endfacet
  facet normal 0 1 0
    outer loop
      vertex 0 900 664
      vertex 78 900 644
      vertex 0 900 644
    endloop
  endfacet
  facet normal 0 1 -0
    outer loop
      vertex 166 900 664
      vertex 144 900 864
      vertex 166 900 864
    endloop
  endfacet
  facet normal 0 1 0
    outer loop
      vertex 144 900 864
      vertex 166 900 664
      vertex 100 900 864
    endloop
  endfacet
  facet normal 0 1 0
    outer loop
      vertex 78 900 664
      vertex 100 900 864
      vertex 166 900 664
    endloop
  endfacet
  facet normal 0 1 0
    outer loop
      vertex 100 900 864
      vertex 78 900 664
      vertex 78 900 864
    endloop
  endfacet
  facet normal 0 1 -0
    outer loop
      vertex 144 900 864
      vertex 100 900 1844
      vertex 144 900 1844
    endloop
  endfacet
  facet normal 0 1 0
    outer loop
      vertex 100 900 1844
      vertex 144 900 864
      vertex 100 900 864
    endloop
  endfacet
  facet normal 0 -1 0
    outer loop
      vertex 100 878 864
      vertex 144 878 1800
      vertex 100 878 1800
    endloop
  endfacet
  facet normal 0 -1 -0
    outer loop
      vertex 144 878 1800
      vertex 100 878 864
      vertex 144 878 864
    endloop
  endfacet
  facet normal 0 -1 0
    outer loop
      vertex 78 878 664
      vertex 166 878 820
      vertex 78 878 820
    endloop
  endfacet
  facet normal 0 -1 -0
    outer loop
      vertex 166 878 820
      vertex 78 878 664
      vertex 166 878 664
    endloop
  endfacet
  facet normal 0 -1 0
    outer loop
      vertex 78 878 88
      vertex 166 878 600
      vertex 78 878 600
    endloop
  endfacet
  facet normal 0 -1 -0
    outer loop
      vertex 166 878 600
      vertex 78 878 88
      vertex 166 878 88
    endloop
  endfacet
  facet normal 0 1 -0
    outer loop
      vertex 100 878 0
      vertex 78 878 44
      vertex 100 878 44
    endloop
  endfacet
  facet normal 0 1 0
    outer loop
      vertex 0 878 0
      vertex 78 878 44
      vertex 100 878 0
    endloop
  endfacet
  facet normal 0 1 0
    outer loop
      vertex 78 878 44
      vertex 0 878 0
      vertex 0 878 44
    endloop
  endfacet
  facet normal 0 1 -0
    outer loop
      vertex 600 878 0
      vertex 166 878 44
      vertex 600 878 44
    endloop
  endfacet
  facet normal 0 1 0
    outer loop
      vertex 144 878 0
      vertex 166 878 44
      vertex 600 878 0
    endloop
  endfacet
  facet normal 0 1 0
    outer loop
      vertex 166 878 44
      vertex 144 878 0
      vertex 144 878 44
    endloop
  endfacet
  facet normal -1 0 0
    outer loop
      vertex 0 834 0
      vertex 0 878 44
      vertex 0 878 0
    endloop
  endfacet
  facet normal -1 -0 0
    outer loop
      vertex 0 878 44
      vertex 0 834 0
      vertex 0 834 44
    endloop
  endfacet
  facet normal 1 -0 0
    outer loop
      vertex 600 834 44
      vertex 600 878 0
      vertex 600 878 44
    endloop
  endfacet
  facet normal 1 0 0
    outer loop
      vertex 600 878 0
      vertex 600 834 44
      vertex 600 834 0
    endloop
  endfacet
  facet normal -1 0 0
    outer loop
      vertex 56 66 0
      vertex 56 834 44
      vertex 56 834 0
    endloop
  endfacet
  facet normal -1 -0 0
    outer loop
      vertex 56 834 44
      vertex 56 66 0
      vertex 56 66 44
    endloop
  endfacet
  facet normal -0 0 1
    outer loop
      vertex 100 900 1844
      vertex 144 0 1844
      vertex 144 900 1844
    endloop
  endfacet
  facet normal 0 0 1
    outer loop
      vertex 144 0 1844
      vertex 100 900 1844
      vertex 100 0 1844
    endloop
  endfacet
  facet normal -1 0 0
    outer loop
      vertex 78 88 44
      vertex 78 66 88
      vertex 78 88 644
    endloop
  endfacet
  facet normal -1 0 0
    outer loop
      vertex 78 22 44
      vertex 78 66 88
      vertex 78 88 44
    endloop
  endfacet
  facet normal -1 0 0
    outer loop
      vertex 78 22 44
      vertex 78 22 88
      vertex 78 66 88
    endloop
  endfacet
  facet normal -1 0 0
    outer loop
      vertex 78 0 44
      vertex 78 22 88
      vertex 78 22 44
    endloop
  endfacet
  facet normal -1 -0 0
    outer loop
      vertex 78 22 88
      vertex 78 0 44
      vertex 78 22 600
    endloop
  endfacet
  facet normal -1 0 0
    outer loop
      vertex 78 0 644
      vertex 78 22 600
      vertex 78 0 44
    endloop
  endfacet
  facet normal -1 0 0
    outer loop
      vertex 78 22 600
      vertex 78 0 644
      vertex 78 22 644
    endloop
  endfacet
  facet normal -1 0 0
    outer loop
      vertex 78 66 600
      vertex 78 88 644
      vertex 78 66 88
    endloop
  endfacet
  facet normal -1 -0 0
    outer loop
      vertex 78 88 644
      vertex 78 66 600
      vertex 78 66 644
    endloop
  endfacet
  facet normal -1 0 0
    outer loop
      vertex 78 22 664
      vertex 78 0 664
      vertex 78 22 820
    endloop
  endfacet
  facet normal -1 0 0
    outer loop
      vertex 78 66 820
      vertex 78 88 664
      vertex 78 66 664
    endloop
  endfacet
  facet normal -1 0 0
    outer loop
      vertex 78 88 664
      vertex 78 66 820
      vertex 78 88 864
    endloop
  endfacet
  facet normal -1 0 0
    outer loop
      vertex 78 22 820
      vertex 78 88 864
      vertex 78 66 820
    endloop
  endfacet
  facet normal -1 0 0
    outer loop
      vertex 78 22 820
      vertex 78 0 864
      vertex 78 88 864
    endloop
  endfacet
  facet normal -1 0 0
    outer loop
      vertex 78 0 864
      vertex 78 22 820
      vertex 78 0 664
    endloop
  endfacet
  facet normal -0 0 1
    outer loop
      vertex 78 88 864
      vertex 100 66 864
      vertex 100 88 864
    endloop
  endfacet
  facet normal 0 0 1
    outer loop
      vertex 100 66 864
      vertex 78 88 864
      vertex 100 22 864
    endloop
  endfacet
  facet normal 0 0 1
    outer loop
      vertex 78 0 864
      vertex 100 22 864
      vertex 78 88 864
    endloop
  endfacet
  facet normal 0 0 1
    outer loop
      vertex 100 22 864
      vertex 78 0 864
      vertex 100 0 864
    endloop
  endfacet
  facet normal -0 0 1
    outer loop
      vertex 100 66 864
      vertex 144 22 864
      vertex 144 66 864
    endloop
  endfacet
  facet normal 0 0 1
    outer loop
      vertex 144 22 864
      vertex 100 66 864
      vertex 100 22 864
    endloop
  endfacet
  facet normal 0 0 1
    outer loop
      vertex 144 66 864
      vertex 166 88 864
      vertex 144 88 864
    endloop
  endfacet
  facet normal 0 0 1
    outer loop
      vertex 166 88 864
      vertex 144 66 864
      vertex 166 0 864
    endloop
  endfacet
  facet normal -0 0 1
    outer loop
      vertex 144 22 864
      vertex 166 0 864
      vertex 144 66 864
    endloop
  endfacet
  facet normal 0 0 1
    outer loop
      vertex 166 0 864
      vertex 144 22 864
      vertex 144 0 864
    endloop
  endfacet
  facet normal 0 -1 0
    outer loop
      vertex 0 22 600
      vertex 78 22 644
      vertex 0 22 644
    endloop
  endfacet
  facet normal 0 -1 -0
    outer loop
      vertex 78 22 644
      vertex 0 22 600
      vertex 78 22 600
    endloop
  endfacet
  facet normal 0 -1 0
    outer loop
      vertex 166 22 600
      vertex 600 22 644
      vertex 166 22 644
    endloop
  endfacet
  facet normal 0 -1 -0
    outer loop
      vertex 600 22 644
      vertex 166 22 600
      vertex 600 22 600
    endloop
  endfacet
  facet normal 1 0 0
    outer loop
      vertex 166 88 864
      vertex 166 66 820
      vertex 166 88 664
    endloop
  endfacet
  facet normal 1 0 0
    outer loop
      vertex 166 88 864
      vertex 166 22 820
      vertex 166 66 820
    endloop
  endfacet
  facet normal 1 -0 0
    outer loop
      vertex 166 0 864
      vertex 166 22 820
      vertex 166 88 864
    endloop
  endfacet
  facet normal 1 0 0
    outer loop
      vertex 166 0 664
      vertex 166 22 820
      vertex 166 0 864
    endloop
  endfacet
  facet normal 1 0 0
    outer loop
      vertex 166 22 820
      vertex 166 0 664
      vertex 166 22 664
    endloop
  endfacet
  facet normal 1 0 0
    outer loop
      vertex 166 88 664
      vertex 166 66 820
      vertex 166 66 664
    endloop
  endfacet
  facet normal 1 -0 0
    outer loop
      vertex 166 0 644
      vertex 166 22 600
      vertex 166 22 644
    endloop
  endfacet
  facet normal 1 0 0
    outer loop
      vertex 166 22 600
      vertex 166 0 644
      vertex 166 22 88
    endloop
  endfacet
  facet normal 1 0 0
    outer loop
      vertex 166 0 44
      vertex 166 22 88
      vertex 166 0 644
    endloop
  endfacet
  facet normal 1 0 0
    outer loop
      vertex 166 22 88
      vertex 166 0 44
      vertex 166 22 44
    endloop
  endfacet
  facet normal 1 0 0
    outer loop
      vertex 166 66 600
      vertex 166 88 644
      vertex 166 66 644
    endloop
  endfacet
  facet normal 1 0 0
    outer loop
      vertex 166 88 644
      vertex 166 66 600
      vertex 166 88 44
    endloop
  endfacet
  facet normal 1 -0 0
    outer loop
      vertex 166 66 88
      vertex 166 88 44
      vertex 166 66 600
    endloop
  endfacet
  facet normal 1 0 0
    outer loop
      vertex 166 66 88
      vertex 166 66 44
      vertex 166 88 44
    endloop
  endfacet
  facet normal 1 -0 0
    outer loop
      vertex 166 22 88
      vertex 166 66 44
      vertex 166 66 88
    endloop
  endfacet
  facet normal 1 0 0
    outer loop
      vertex 166 66 44
      vertex 166 22 88
      vertex 166 22 44
    endloop
  endfacet
  facet normal -1 0 0
    outer loop
      vertex 78 878 44
      vertex 78 834 88
      vertex 78 878 88
    endloop
  endfacet
  facet normal -1 0 0
    outer loop
      vertex 78 812 644
      vertex 78 834 600
      vertex 78 834 88
    endloop
  endfacet
  facet normal -1 0 0
    outer loop
      vertex 78 812 44
      vertex 78 834 88
      vertex 78 878 44
    endloop
  endfacet
  facet normal -1 0 0
    outer loop
      vertex 78 812 644
      vertex 78 834 88
      vertex 78 812 44
    endloop
  endfacet
  facet normal -1 0 0
    outer loop
      vertex 78 834 600
      vertex 78 812 644
      vertex 78 834 644
    endloop
  endfacet
  facet normal -1 0 0
    outer loop
      vertex 78 878 88
      vertex 78 900 44
      vertex 78 878 44
    endloop
  endfacet
  facet normal -1 0 0
    outer loop
      vertex 78 900 44
      vertex 78 878 88
      vertex 78 900 644
    endloop
  endfacet
  facet normal -1 0 0
    outer loop
      vertex 78 878 600
      vertex 78 900 644
      vertex 78 878 88
    endloop
  endfacet
  facet normal -1 -0 0
    outer loop
      vertex 78 900 644
      vertex 78 878 600
      vertex 78 878 644
    endloop
  endfacet
  facet normal -1 0 0
    outer loop
      vertex 78 834 664
      vertex 78 812 664
      vertex 78 834 820
    endloop
  endfacet
  facet normal -1 0 0
    outer loop
      vertex 78 878 820
      vertex 78 900 664
      vertex 78 878 664
    endloop
  endfacet
  facet normal -1 0 0
    outer loop
      vertex 78 900 664
      vertex 78 878 820
      vertex 78 900 864
    endloop
  endfacet
  facet normal -1 0 0
    outer loop
      vertex 78 834 820
      vertex 78 900 864
      vertex 78 878 820
    endloop
  endfacet
  facet normal -1 0 0
    outer loop
      vertex 78 834 820
      vertex 78 812 864
      vertex 78 900 864
    endloop
  endfacet
  facet normal -1 0 0
    outer loop
      vertex 78 812 864
      vertex 78 834 820
      vertex 78 812 664
    endloop
  endfacet
  facet normal -0 0 1
    outer loop
      vertex 78 900 864
      vertex 100 878 864
      vertex 100 900 864
    endloop
  endfacet
  facet normal 0 0 1
    outer loop
      vertex 100 878 864
      vertex 78 900 864
      vertex 100 834 864
    endloop
  endfacet
  facet normal 0 0 1
    outer loop
      vertex 78 812 864
      vertex 100 834 864
      vertex 78 900 864
    endloop
  endfacet
  facet normal 0 0 1
    outer loop
      vertex 100 834 864
      vertex 78 812 864
      vertex 100 812 864
    endloop
  endfacet
  facet normal -0 0 1
    outer loop
      vertex 100 878 864
      vertex 144 834 864
      vertex 144 878 864
    endloop
  endfacet
  facet normal 0 0 1
    outer loop
      vertex 144 834 864
      vertex 100 878 864
      vertex 100 834 864
    endloop
  endfacet
  facet normal 0 0 1
    outer loop
      vertex 144 878 864
      vertex 166 900 864
      vertex 144 900 864
    endloop
  endfacet
  facet normal 0 0 1
    outer loop
      vertex 166 900 864
      vertex 144 878 864
      vertex 166 812 864
    endloop
  endfacet
  facet normal -0 0 1
    outer loop
      vertex 144 834 864
      vertex 166 812 864
      vertex 144 878 864
    endloop
  endfacet
  facet normal 0 0 1
    outer loop
      vertex 166 812 864
      vertex 144 834 864
      vertex 144 812 864
    endloop
  endfacet
  facet normal 0 -1 0
    outer loop
      vertex 0 834 600
      vertex 78 834 644
      vertex 0 834 644
    endloop
  endfacet
  facet normal 0 -1 -0
    outer loop
      vertex 78 834 644
      vertex 0 834 600
      vertex 78 834 600
    endloop
  endfacet
  facet normal 0 -1 0
    outer loop
      vertex 166 834 600
      vertex 600 834 644
      vertex 166 834 644
    endloop
  endfacet
  facet normal 0 -1 -0
    outer loop
      vertex 600 834 644
      vertex 166 834 600
      vertex 600 834 600
    endloop
  endfacet
  facet normal 1 0 0
    outer loop
      vertex 166 900 864
      vertex 166 878 820
      vertex 166 900 664
    endloop
  endfacet
  facet normal 1 0 0
    outer loop
      vertex 166 900 864
      vertex 166 834 820
      vertex 166 878 820
    endloop
  endfacet
  facet normal 1 -0 0
    outer loop
      vertex 166 812 864
      vertex 166 834 820
      vertex 166 900 864
    endloop
  endfacet
  facet normal 1 0 0
    outer loop
      vertex 166 812 664
      vertex 166 834 820
      vertex 166 812 864
    endloop
  endfacet
  facet normal 1 0 0
    outer loop
      vertex 166 834 820
      vertex 166 812 664
      vertex 166 834 664
    endloop
  endfacet
  facet normal 1 0 0
    outer loop
      vertex 166 900 664
      vertex 166 878 820
      vertex 166 878 664
    endloop
  endfacet
  facet normal 1 -0 0
    outer loop
      vertex 166 812 644
      vertex 166 834 600
      vertex 166 834 644
    endloop
  endfacet
  facet normal 1 0 0
    outer loop
      vertex 166 834 600
      vertex 166 812 644
      vertex 166 834 88
    endloop
  endfacet
  facet normal 1 0 0
    outer loop
      vertex 166 812 44
      vertex 166 834 88
      vertex 166 812 644
    endloop
  endfacet
  facet normal 1 0 0
    outer loop
      vertex 166 834 88
      vertex 166 812 44
      vertex 166 834 44
    endloop
  endfacet
  facet normal 1 0 0
    outer loop
      vertex 166 878 600
      vertex 166 900 644
      vertex 166 878 644
    endloop
  endfacet
  facet normal 1 0 0
    outer loop
      vertex 166 900 644
      vertex 166 878 600
      vertex 166 900 44
    endloop
  endfacet
  facet normal 1 -0 0
    outer loop
      vertex 166 878 88
      vertex 166 900 44
      vertex 166 878 600
    endloop
  endfacet
  facet normal 1 0 0
    outer loop
      vertex 166 878 88
      vertex 166 878 44
      vertex 166 900 44
    endloop
  endfacet
  facet normal 1 -0 0
    outer loop
      vertex 166 834 88
      vertex 166 878 44
      vertex 166 878 88
    endloop
  endfacet
  facet normal 1 0 0
    outer loop
      vertex 166 878 44
      vertex 166 834 88
      vertex 166 834 44
    endloop
  endfacet
  facet normal -0 0 1
    outer loop
      vertex 78 66 88
      vertex 166 22 88
      vertex 166 66 88
    endloop
  endfacet
  facet normal 0 0 1
    outer loop
      vertex 166 22 88
      vertex 78 66 88
      vertex 78 22 88
    endloop
  endfacet
  facet normal 0 1 -0
    outer loop
      vertex 600 66 600
      vertex 166 66 644
      vertex 600 66 644
    endloop
  endfacet
  facet normal 0 1 0
    outer loop
      vertex 166 66 644
      vertex 600 66 600
      vertex 166 66 600
    endloop
  endfacet
  facet normal 0 1 -0
    outer loop
      vertex 78 66 600
      vertex 0 66 644
      vertex 78 66 644
    endloop
  endfacet
  facet normal 0 1 0
    outer loop
      vertex 0 66 644
      vertex 78 66 600
      vertex 0 66 600
    endloop
  endfacet
  facet normal 0 0 -1
    outer loop
      vertex 78 22 820
      vertex 166 66 820
      vertex 166 22 820
    endloop
  endfacet
  facet normal -0 0 -1
    outer loop
      vertex 166 66 820
      vertex 78 22 820
      vertex 78 66 820
    endloop
  endfacet
  facet normal -1 0 0
    outer loop
      vertex 0 66 600
      vertex 0 22 600
      vertex 0 66 644
    endloop
  endfacet
  facet normal -1 0 0
    outer loop
      vertex 0 878 600
      vertex 0 834 600
      vertex 0 878 644
    endloop
  endfacet
  facet normal -1 0 0
    outer loop
      vertex 0 878 644
      vertex 0 900 664
      vertex 0 900 644
    endloop
  endfacet
  facet normal -1 0 0
    outer loop
      vertex 0 834 644
      vertex 0 878 644
      vertex 0 834 600
    endloop
  endfacet
  facet normal -1 0 0
    outer loop
      vertex 0 834 644
      vertex 0 900 664
      vertex 0 878 644
    endloop
  endfacet
  facet normal -1 0 0
    outer loop
      vertex 0 66 644
      vertex 0 900 664
      vertex 0 834 644
    endloop
  endfacet
  facet normal -1 0 0
    outer loop
      vertex 0 22 644
      vertex 0 66 644
      vertex 0 22 600
    endloop
  endfacet
  facet normal -1 0 0
    outer loop
      vertex 0 0 664
      vertex 0 66 644
      vertex 0 22 644
    endloop
  endfacet
  facet normal -1 0 0
    outer loop
      vertex 0 0 664
      vertex 0 22 644
      vertex 0 0 644
    endloop
  endfacet
  facet normal -1 0 0
    outer loop
      vertex 0 66 644
      vertex 0 0 664
      vertex 0 900 664
    endloop
  endfacet
  facet normal 0 0 -1
    outer loop
      vertex 0 878 644
      vertex 78 900 644
      vertex 78 878 644
    endloop
  endfacet
  facet normal -0 0 -1
    outer loop
      vertex 78 900 644
      vertex 0 878 644
      vertex 0 900 644
    endloop
  endfacet
  facet normal 0 0 -1
    outer loop
      vertex 0 0 644
      vertex 78 22 644
      vertex 78 0 644
    endloop
  endfacet
  facet normal -0 0 -1
    outer loop
      vertex 78 22 644
      vertex 0 0 644
      vertex 0 22 644
    endloop
  endfacet
  facet normal 0 0 -1
    outer loop
      vertex 166 0 644
      vertex 600 22 644
      vertex 600 0 644
    endloop
  endfacet
  facet normal -0 0 -1
    outer loop
      vertex 600 22 644
      vertex 166 0 644
      vertex 166 22 644
    endloop
  endfacet
  facet normal 0 0 -1
    outer loop
      vertex 166 878 644
      vertex 600 900 644
      vertex 600 878 644
    endloop
  endfacet
  facet normal -0 0 -1
    outer loop
      vertex 600 900 644
      vertex 166 878 644
      vertex 166 900 644
    endloop
  endfacet
  facet normal 0 0 -1
    outer loop
      vertex 0 66 644
      vertex 78 88 644
      vertex 78 66 644
    endloop
  endfacet
  facet normal -0 0 -1
    outer loop
      vertex 78 88 644
      vertex 0 66 644
      vertex 78 812 644
    endloop
  endfacet
  facet normal 0 0 -1
    outer loop
      vertex 0 834 644
      vertex 78 812 644
      vertex 0 66 644
    endloop
  endfacet
  facet normal 0 0 -1
    outer loop
      vertex 78 812 644
      vertex 0 834 644
      vertex 78 834 644
    endloop
  endfacet
  facet normal 0 0 -1
    outer loop
      vertex 78 88 644
      vertex 166 812 644
      vertex 166 88 644
    endloop
  endfacet
  facet normal -0 0 -1
    outer loop
      vertex 166 812 644
      vertex 78 88 644
      vertex 78 812 644
    endloop
  endfacet
  facet normal 0 0 -1
    outer loop
      vertex 166 88 644
      vertex 600 66 644
      vertex 166 66 644
    endloop
  endfacet
  facet normal 0 0 -1
    outer loop
      vertex 600 66 644
      vertex 166 88 644
      vertex 600 834 644
    endloop
  endfacet
  facet normal 0 0 -1
    outer loop
      vertex 166 812 644
      vertex 600 834 644
      vertex 166 88 644
    endloop
  endfacet
  facet normal -0 0 -1
    outer loop
      vertex 600 834 644
      vertex 166 812 644
      vertex 166 834 644
    endloop
  endfacet
  facet normal 1 0 0
    outer loop
      vertex 600 900 664
      vertex 600 878 644
      vertex 600 900 644
    endloop
  endfacet
  facet normal 1 0 0
    outer loop
      vertex 600 878 644
      vertex 600 834 644
      vertex 600 878 600
    endloop
  endfacet
  facet normal 1 0 0
    outer loop
      vertex 600 900 664
      vertex 600 834 644
      vertex 600 878 644
    endloop
  endfacet
  facet normal 1 0 0
    outer loop
      vertex 600 900 664
      vertex 600 66 644
      vertex 600 834 644
    endloop
  endfacet
  facet normal 1 0 0
    outer loop
      vertex 600 66 644
      vertex 600 22 644
      vertex 600 66 600
    endloop
  endfacet
  facet normal 1 -0 0
    outer loop
      vertex 600 0 664
      vertex 600 66 644
      vertex 600 900 664
    endloop
  endfacet
  facet normal 1 0 0
    outer loop
      vertex 600 66 644
      vertex 600 0 664
      vertex 600 22 644
    endloop
  endfacet
  facet normal 1 0 0
    outer loop
      vertex 600 22 644
      vertex 600 0 664
      vertex 600 0 644
    endloop
  endfacet
  facet normal 1 0 0
    outer loop
      vertex 600 878 600
      vertex 600 834 644
      vertex 600 834 600
    endloop
  endfacet
  facet normal 1 0 0
    outer loop
      vertex 600 66 600
      vertex 600 22 644
      vertex 600 22 600
    endloop
  endfacet
  facet normal 0 0 -1
    outer loop
      vertex 166 22 600
      vertex 600 66 600
      vertex 600 22 600
    endloop
  endfacet
  facet normal 0 0 -1
    outer loop
      vertex 166 22 600
      vertex 166 66 600
      vertex 600 66 600
    endloop
  endfacet
  facet normal 0 0 -1
    outer loop
      vertex 78 22 600
      vertex 166 66 600
      vertex 166 22 600
    endloop
  endfacet
  facet normal 0 0 -1
    outer loop
      vertex 78 22 600
      vertex 78 66 600
      vertex 166 66 600
    endloop
  endfacet
  facet normal 0 0 -1
    outer loop
      vertex 0 22 600
      vertex 78 66 600
      vertex 78 22 600
    endloop
  endfacet
  facet normal -0 0 -1
    outer loop
      vertex 78 66 600
      vertex 0 22 600
      vertex 0 66 600
    endloop
  endfacet
  facet normal -0 0 1
    outer loop
      vertex 78 878 88
      vertex 166 834 88
      vertex 166 878 88
    endloop
  endfacet
  facet normal 0 0 1
    outer loop
      vertex 166 834 88
      vertex 78 878 88
      vertex 78 834 88
    endloop
  endfacet
  facet normal 0 1 -0
    outer loop
      vertex 600 878 600
      vertex 166 878 644
      vertex 600 878 644
    endloop
  endfacet
  facet normal 0 1 0
    outer loop
      vertex 166 878 644
      vertex 600 878 600
      vertex 166 878 600
    endloop
  endfacet
  facet normal 0 1 -0
    outer loop
      vertex 78 878 600
      vertex 0 878 644
      vertex 78 878 644
    endloop
  endfacet
  facet normal 0 1 0
    outer loop
      vertex 0 878 644
      vertex 78 878 600
      vertex 0 878 600
    endloop
  endfacet
  facet normal 0 0 -1
    outer loop
      vertex 78 834 820
      vertex 166 878 820
      vertex 166 834 820
    endloop
  endfacet
  facet normal -0 0 -1
    outer loop
      vertex 166 878 820
      vertex 78 834 820
      vertex 78 878 820
    endloop
  endfacet
  facet normal 0 0 -1
    outer loop
      vertex 166 834 600
      vertex 600 878 600
      vertex 600 834 600
    endloop
  endfacet
  facet normal 0 0 -1
    outer loop
      vertex 166 834 600
      vertex 166 878 600
      vertex 600 878 600
    endloop
  endfacet
  facet normal 0 0 -1
    outer loop
      vertex 78 834 600
      vertex 166 878 600
      vertex 166 834 600
    endloop
  endfacet
  facet normal 0 0 -1
    outer loop
      vertex 78 834 600
      vertex 78 878 600
      vertex 166 878 600
    endloop
  endfacet
  facet normal 0 0 -1
    outer loop
      vertex 0 834 600
      vertex 78 878 600
      vertex 78 834 600
    endloop
  endfacet
  facet normal -0 0 -1
    outer loop
      vertex 78 878 600
      vertex 0 834 600
      vertex 0 878 600
    endloop
  endfacet
  facet normal -0 0 1
    outer loop
      vertex 0 900 664
      vertex 78 878 664
      vertex 78 900 664
    endloop
  endfacet
  facet normal 0 0 1
    outer loop
      vertex 78 878 664
      vertex 0 900 664
      vertex 78 834 664
    endloop
  endfacet
  facet normal 0 0 1
    outer loop
      vertex 78 834 664
      vertex 0 900 664
      vertex 78 812 664
    endloop
  endfacet
  facet normal 0 0 1
    outer loop
      vertex 78 812 664
      vertex 0 900 664
      vertex 78 88 664
    endloop
  endfacet
  facet normal 0 0 1
    outer loop
      vertex 0 0 664
      vertex 78 88 664
      vertex 0 900 664
    endloop
  endfacet
  facet normal 0 0 1
    outer loop
      vertex 78 88 664
      vertex 0 0 664
      vertex 78 66 664
    endloop
  endfacet
  facet normal 0 0 1
    outer loop
      vertex 78 66 664
      vertex 0 0 664
      vertex 78 22 664
    endloop
  endfacet
  facet normal 0 0 1
    outer loop
      vertex 78 22 664
      vertex 0 0 664
      vertex 78 0 664
    endloop
  endfacet
  facet normal -0 0 1
    outer loop
      vertex 78 66 664
      vertex 166 22 664
      vertex 166 66 664
    endloop
  endfacet
  facet normal 0 0 1
    outer loop
      vertex 166 22 664
      vertex 78 66 664
      vertex 78 22 664
    endloop
  endfacet
  facet normal -0 0 1
    outer loop
      vertex 78 812 664
      vertex 166 88 664
      vertex 166 812 664
    endloop
  endfacet
  facet normal 0 0 1
    outer loop
      vertex 166 88 664
      vertex 78 812 664
      vertex 78 88 664
    endloop
  endfacet
  facet normal -0 0 1
    outer loop
      vertex 78 878 664
      vertex 166 834 664
      vertex 166 878 664
    endloop
  endfacet
  facet normal 0 0 1
    outer loop
      vertex 166 834 664
      vertex 78 878 664
      vertex 78 834 664
    endloop
  endfacet
  facet normal 0 0 1
    outer loop
      vertex 166 878 664
      vertex 600 900 664
      vertex 166 900 664
    endloop
  endfacet
  facet normal 0 0 1
    outer loop
      vertex 166 834 664
      vertex 600 900 664
      vertex 166 878 664
    endloop
  endfacet
  facet normal 0 0 1
    outer loop
      vertex 166 812 664
      vertex 600 900 664
      vertex 166 834 664
    endloop
  endfacet
  facet normal 0 0 1
    outer loop
      vertex 600 900 664
      vertex 166 812 664
      vertex 600 0 664
    endloop
  endfacet
  facet normal -0 0 1
    outer loop
      vertex 166 88 664
      vertex 600 0 664
      vertex 166 812 664
    endloop
  endfacet
  facet normal -0 0 1
    outer loop
      vertex 166 66 664
      vertex 600 0 664
      vertex 166 88 664
    endloop
  endfacet
  facet normal -0 0 1
    outer loop
      vertex 166 22 664
      vertex 600 0 664
      vertex 166 66 664
    endloop
  endfacet
  facet normal 0 0 1
    outer loop
      vertex 600 0 664
      vertex 166 22 664
      vertex 166 0 664
    endloop
  endfacet
endsolid OpenSCAD_Model
